<svg width="46" height="28" viewBox="0 0 46 28" fill="none" xmlns="http://www.w3.org/2000/svg">
<g clip-path="url(#clip0_125_4548)">
<path d="M2.55516 2.26402C3.74504 2.89838 20.2736 12.0091 20.8901 12.3372C21.5067 12.6654 22.1341 12.8185 23.1076 12.8185C24.0812 12.8185 24.7086 12.6654 25.3251 12.3372C25.9417 12.0091 42.4702 2.89838 43.6601 2.26402C44.1036 2.03433 44.85 1.61872 45.0122 1.14841C45.2935 0.317181 44.9906 0 43.7899 0H23.1076H2.42536C1.22466 0 0.921785 0.328118 1.20303 1.14841C1.36529 1.62965 2.11166 2.03433 2.55516 2.26402Z" fill="black"/>
<path d="M44.6013 2.7561C43.7143 3.21547 35.7529 8.9466 30.485 12.3918L39.3766 22.5088C39.593 22.7276 39.6903 22.9901 39.5713 23.1213C39.4415 23.2416 39.1603 23.176 38.9331 22.9682L28.2675 13.8684C26.6557 14.9184 25.5199 15.6402 25.3252 15.7496C24.4923 16.1761 23.9082 16.2308 23.1077 16.2308C22.3072 16.2308 21.7231 16.1761 20.8902 15.7496C20.6847 15.6402 19.5597 14.9184 17.948 13.8684L7.28231 22.9682C7.06597 23.1869 6.77391 23.2526 6.64411 23.1213C6.5143 23.001 6.61165 22.7276 6.828 22.5088L15.7088 12.3918C10.4409 8.9466 2.39299 3.21547 1.50599 2.7561C0.554085 2.26393 0.5 2.8436 0.5 3.29203C0.5 3.74046 0.5 25.7134 0.5 25.7134C0.5 26.7306 1.98194 27.9993 3.04202 27.9993H23.1077H43.1734C44.2335 27.9993 45.4991 26.7197 45.4991 25.7134C45.4991 25.7134 45.4991 3.72952 45.4991 3.29203C45.4991 2.83267 45.564 2.26393 44.6013 2.7561Z" fill="black"/>
</g>
<defs>
<clipPath id="clip0_125_4548">
<rect width="45" height="28" fill="white" transform="translate(0.5)"/>
</clipPath>
</defs>
</svg>
