<svg width="46" height="29" viewBox="0 0 46 29" fill="none" xmlns="http://www.w3.org/2000/svg">
<g clip-path="url(#clip0_1_78)">
<path d="M2.55526 2.63902C3.74514 3.27338 20.2736 12.3841 20.8902 12.7122C21.5068 13.0404 22.1342 13.1935 23.1077 13.1935C24.0813 13.1935 24.7087 13.0404 25.3252 12.7122C25.9418 12.3841 42.4703 3.27338 43.6602 2.63902C44.1037 2.40933 44.8501 1.99372 45.0123 1.52341C45.2936 0.692181 44.9907 0.375 43.79 0.375H23.1077H2.42546C1.22476 0.375 0.921881 0.703118 1.20313 1.52341C1.36538 2.00465 2.11176 2.40933 2.55526 2.63902Z" fill="white"/>
<path d="M44.6013 3.13123C43.7143 3.59059 35.7529 9.32172 30.485 12.767L39.3766 22.8839C39.593 23.1027 39.6903 23.3652 39.5713 23.4964C39.4415 23.6167 39.1603 23.5511 38.9331 23.3433L28.2675 14.2435C26.6557 15.2935 25.5199 16.0153 25.3252 16.1247C24.4923 16.5513 23.9082 16.6059 23.1077 16.6059C22.3072 16.6059 21.7231 16.5513 20.8902 16.1247C20.6847 16.0153 19.5597 15.2935 17.948 14.2435L7.28231 23.3433C7.06597 23.5621 6.77391 23.6277 6.64411 23.4964C6.5143 23.3761 6.61165 23.1027 6.828 22.8839L15.7088 12.767C10.4409 9.32172 2.39299 3.59059 1.50599 3.13123C0.554085 2.63905 0.5 3.21872 0.5 3.66715C0.5 4.11558 0.5 26.0886 0.5 26.0886C0.5 27.1057 1.98194 28.3745 3.04202 28.3745H23.1077H43.1734C44.2335 28.3745 45.4991 27.0948 45.4991 26.0886C45.4991 26.0886 45.4991 4.10464 45.4991 3.66715C45.4991 3.20779 45.564 2.63905 44.6013 3.13123Z" fill="white"/>
</g>
<defs>
<clipPath id="clip0_1_78">
<rect width="45" height="28" fill="white" transform="translate(0.5 0.375)"/>
</clipPath>
</defs>
</svg>
