<svg width="97" height="95" viewBox="0 0 97 95" fill="red" xmlns="http://www.w3.org/2000/svg">
<style>
  path {
    fill: black;
  }
  @media (prefers-color-scheme: dark) {
    
  }
</style>

<path fill-rule="evenodd" clip-rule="evenodd" d="M62.0769 47.3478C62.0769 54.831 55.9467 60.8974 48.3846 60.8974C40.8226 60.8974 34.6923 54.831 34.6923 47.3478C34.6923 39.8645 40.8226 33.7981 48.3846 33.7981C55.9467 33.7981 62.0769 39.8645 62.0769 47.3478ZM57.7692 47.3478C57.7692 52.4767 53.5676 56.6346 48.3846 56.6346C43.2016 56.6346 39 52.4767 39 47.3478C39 42.2188 43.2016 38.0609 48.3846 38.0609C53.5676 38.0609 57.7692 42.2188 57.7692 47.3478Z" fill="black"/>
<path d="M30.8233 20.0339C31.8081 19.3737 32.0657 18.0484 31.3985 17.0738C30.7314 16.0992 29.3922 15.8444 28.4073 16.5046C13.2658 26.655 10.1539 42.1769 11.9507 53.1689C12.1406 54.3309 13.2466 55.1206 14.4209 54.9326C15.5951 54.7446 16.3931 53.6502 16.2031 52.4882C14.6153 42.775 17.3496 29.0662 30.8233 20.0339Z" fill="black"/>
<path d="M16.1213 60.1694C17.2074 59.6892 18.4812 60.1711 18.9665 61.2459C21.9749 67.909 30.0639 77.1956 43.1736 79.1914C44.3493 79.3704 45.1558 80.4587 44.9749 81.6222C44.7941 82.7856 43.6943 83.5837 42.5186 83.4047C27.6284 81.1378 18.4866 70.6327 15.0335 62.9849C14.5482 61.9101 15.0353 60.6496 16.1213 60.1694Z" fill="black"/>
<path d="M83.0561 59.8574C83.4103 58.7337 82.7769 57.5386 81.6413 57.188C80.5072 56.8379 79.3011 57.4628 78.9452 58.5838L78.9448 58.5851L78.9444 58.5864L78.9381 58.6054C78.931 58.6267 78.9188 58.663 78.9011 58.7136C78.8657 58.8149 78.8086 58.9732 78.7277 59.1816C78.566 59.5986 78.3099 60.2151 77.9441 60.9769C77.2113 62.5028 76.0446 64.5985 74.3236 66.8393C70.8882 71.3125 65.268 76.3395 56.4535 78.6274C55.3029 78.9261 54.6148 80.0912 54.9166 81.2299C55.2184 82.3685 56.3958 83.0494 57.5464 82.7508C67.5012 80.1669 73.881 74.4607 77.7533 69.4187C79.6862 66.9019 81.0002 64.5444 81.8348 62.8066C82.2525 61.9366 82.5518 61.2186 82.7494 60.7091C82.8482 60.4542 82.9218 60.2512 82.9722 60.107C82.9867 60.0656 82.9992 60.0291 83.0099 59.9976L83.0161 59.9792L83.0235 59.9571L83.0307 59.9356L83.0382 59.9128L83.0475 59.8845L83.0528 59.8679L83.0547 59.8619L83.0555 59.8595C83.0555 59.8595 83.0561 59.8574 81 59.2228L83.0561 59.8574Z" fill="black"/>
<path d="M63.5437 16.3857C64.085 15.3376 65.3826 14.9222 66.4418 15.4579L65.4615 17.3558C66.4418 15.4579 66.4439 15.459 66.4439 15.459L66.4533 15.4638L66.4724 15.4736C66.4821 15.4785 66.4936 15.4846 66.5071 15.4916L66.5328 15.5051C66.5828 15.5314 66.6519 15.5683 66.7387 15.616C66.9124 15.7114 67.1574 15.8498 67.4623 16.0325C68.0718 16.3976 68.9233 16.9403 69.9264 17.6694C71.9293 19.1251 74.557 21.3379 77.0711 24.3798C82.1276 30.4979 86.6928 39.9466 84.8252 53.1245C84.6601 54.2903 83.5712 55.1028 82.3932 54.9393C81.2151 54.7758 80.3941 53.6982 80.5593 52.5325C82.2302 40.7425 78.18 32.4548 73.7366 27.0786C71.5006 24.3732 69.1572 22.3994 67.3765 21.1051C66.4878 20.4592 65.7442 19.9863 65.2318 19.6793C64.9757 19.526 64.7779 19.4144 64.6491 19.3437L64.6247 19.3303L64.5969 19.3152C64.5586 19.2944 64.5292 19.2788 64.5091 19.2682L64.4949 19.2608L64.4807 19.2534L64.4777 19.2519C63.4211 18.7151 63.0029 17.4327 63.5437 16.3857Z" fill="black"/>
<path d="M53.5923 11.1325C52.4132 10.9769 51.3299 11.7967 51.1727 12.9635C51.0155 14.1303 51.8439 15.2023 53.023 15.3579C54.2051 15.5139 54.6839 15.5786 55.1936 15.6889C55.7167 15.8022 56.2841 15.966 57.623 16.3557C58.7642 16.6878 59.9614 16.0416 60.2971 14.9123C60.6327 13.783 59.9797 12.5982 58.8385 12.2661L58.7467 12.2394C57.5263 11.8841 56.8045 11.6741 56.1141 11.5246C55.4108 11.3724 54.7513 11.2854 53.6749 11.1434L53.5923 11.1325Z" fill="black"/>
<path fill-rule="evenodd" clip-rule="evenodd" d="M48.5384 95C75.0481 95 96.5384 73.7335 96.5384 47.5C96.5384 21.2665 75.0481 0 48.5384 0C22.0288 0 0.538452 21.2665 0.538452 47.5C0.538452 73.7335 22.0288 95 48.5384 95ZM48.5384 90.7372C72.669 90.7372 92.2308 71.3792 92.2308 47.5C92.2308 23.6208 72.669 4.26282 48.5384 4.26282C24.4079 4.26282 4.84614 23.6208 4.84614 47.5C4.84614 71.3792 24.4079 90.7372 48.5384 90.7372Z" fill="black"/>
</svg>
