<svg width="51" height="52" viewBox="0 0 51 52" fill="none" xmlns="http://www.w3.org/2000/svg">
<g clip-path="url(#clip0_1_86)">
<path d="M25.6349 13.8671C18.5024 13.8671 12.5926 19.4747 12.5926 26.4597C12.5926 33.4446 18.4005 39.0522 25.6349 39.0522C32.8693 39.0522 38.6772 33.3462 38.6772 26.4597C38.6772 19.5731 32.7674 13.8671 25.6349 13.8671ZM25.6349 34.5268C21.0497 34.5268 17.2797 30.8867 17.2797 26.4597C17.2797 22.0326 21.0497 18.3925 25.6349 18.3925C30.2201 18.3925 33.9901 22.0326 33.9901 26.4597C33.9901 30.8867 30.2201 34.5268 25.6349 34.5268Z" fill="white"/>
<path d="M39.127 15.666C40.8656 15.666 42.2751 14.4579 42.2751 12.9676C42.2751 11.4773 40.8656 10.2692 39.127 10.2692C37.3883 10.2692 35.9788 11.4773 35.9788 12.9676C35.9788 14.4579 37.3883 15.666 39.127 15.666Z" fill="white"/>
<path d="M47.1352 5.43809C44.4476 2.69616 40.6231 1.27441 36.2817 1.27441H14.9881C5.99524 1.27441 -2.28882e-05 7.1645 -2.28882e-05 15.9996V36.818C-2.28882e-05 41.1848 1.44711 44.9423 4.34137 47.6842C7.13227 50.3246 10.8535 51.6448 15.0915 51.6448H36.1783C40.6231 51.6448 44.3443 50.223 47.0318 47.6842C49.8227 45.0438 51.2698 41.2864 51.2698 36.9196V15.9996C51.2698 11.7344 49.8227 8.07847 47.1352 5.43809ZM46.7217 36.9196C46.7217 40.0677 45.5847 42.6065 43.7241 44.333C41.8635 46.0594 39.2793 46.9733 36.1783 46.9733H15.0915C11.9905 46.9733 9.40634 46.0594 7.54574 44.333C5.68514 42.505 4.75484 39.9662 4.75484 36.818V15.9996C4.75484 12.953 5.68514 10.4142 7.54574 8.58624C9.30297 6.85984 11.9905 5.94586 15.0915 5.94586H36.385C39.486 5.94586 42.0702 6.85984 43.9308 8.68779C45.688 10.5158 46.7217 13.0546 46.7217 15.9996V36.9196Z" fill="white"/>
</g>
<defs>
<clipPath id="clip0_1_86">
<rect width="51" height="51" fill="white" transform="translate(0 0.375)"/>
</clipPath>
</defs>
</svg>
