<svg width="51" height="51" viewBox="0 0 51 51" fill="none" xmlns="http://www.w3.org/2000/svg">
<g clip-path="url(#clip0_125_4556)">
<path d="M25.6351 13.4922C18.5026 13.4922 12.5928 19.0998 12.5928 26.0848C12.5928 33.0697 18.4007 38.6774 25.6351 38.6774C32.8695 38.6774 38.6774 32.9714 38.6774 26.0848C38.6774 19.1982 32.7676 13.4922 25.6351 13.4922ZM25.6351 34.1519C21.0499 34.1519 17.2799 30.5119 17.2799 26.0848C17.2799 21.6577 21.0499 18.0176 25.6351 18.0176C30.2203 18.0176 33.9903 21.6577 33.9903 26.0848C33.9903 30.5119 30.2203 34.1519 25.6351 34.1519Z" fill="black"/>
<path d="M39.1267 15.2909C40.8653 15.2909 42.2748 14.0827 42.2748 12.5925C42.2748 11.1022 40.8653 9.89404 39.1267 9.89404C37.388 9.89404 35.9785 11.1022 35.9785 12.5925C35.9785 14.0827 37.388 15.2909 39.1267 15.2909Z" fill="black"/>
<path d="M47.1352 5.06309C44.4476 2.32116 40.6231 0.899414 36.2817 0.899414H14.9882C5.99526 0.899414 0 6.7895 0 15.6246V36.443C0 40.8098 1.44713 44.5673 4.3414 47.3092C7.1323 49.9496 10.8535 51.2698 15.0915 51.2698H36.1783C40.6231 51.2698 44.3443 49.848 47.0318 47.3092C49.8227 44.6688 51.2698 40.9114 51.2698 36.5446V15.6246C51.2698 11.3594 49.8227 7.70347 47.1352 5.06309ZM46.7217 36.5446C46.7217 39.6927 45.5847 42.2315 43.7241 43.958C41.8635 45.6844 39.2793 46.5983 36.1783 46.5983H15.0915C11.9905 46.5983 9.40636 45.6844 7.54576 43.958C5.68516 42.13 4.75486 39.5912 4.75486 36.443V15.6246C4.75486 12.578 5.68516 10.0392 7.54576 8.21124C9.30299 6.48484 11.9905 5.57086 15.0915 5.57086H36.385C39.486 5.57086 42.0702 6.48484 43.9308 8.31279C45.688 10.1408 46.7217 12.6796 46.7217 15.6246V36.5446Z" fill="black"/>
</g>
<defs>
<clipPath id="clip0_125_4556">
<rect width="51" height="51" fill="white"/>
</clipPath>
</defs>
</svg>
