<svg width="33" height="33" viewBox="0 0 33 33" fill="none" xmlns="http://www.w3.org/2000/svg">
<g clip-path="url(#clip0_125_4544)">
<path d="M31.4933 23.9437C30.1247 22.5375 26.2346 19.9031 23.685 19.9031C23.0944 19.9031 22.5788 20.0344 22.157 20.3063C20.9103 21.1031 19.9167 21.7219 19.4386 21.7219C19.1762 21.7219 18.895 21.4875 18.2763 20.9531L18.1732 20.8594C16.4578 19.3687 16.0922 18.9844 15.4267 18.2906L15.2579 18.1125C15.1361 17.9906 15.033 17.8781 14.9299 17.775C14.3487 17.175 13.9269 16.7438 12.4364 15.0563L12.3708 14.9812C11.6584 14.175 11.1897 13.65 11.1616 13.2656C11.1335 12.8906 11.4616 12.2812 12.2958 11.1469C13.3082 9.77812 13.3457 8.09062 12.4177 6.13125C11.6772 4.58438 10.4679 3.10313 9.39933 1.8L9.30559 1.6875C8.38696 0.5625 7.31836 0 6.12789 0C4.80619 0 3.70946 0.7125 3.12828 1.0875C3.08141 1.11562 3.03455 1.15312 2.98768 1.18125C1.68472 2.00625 0.737973 3.14063 0.38177 4.29375C-0.152535 6.02813 -0.508738 8.27813 2.0503 12.9563C4.26251 17.0063 6.26849 19.725 9.45557 22.9969C12.4552 26.0719 13.7863 27.0656 16.7671 29.2219C20.0854 31.6219 23.2725 33 25.5035 33C27.5751 33 29.2061 33 31.5308 30.1969C33.968 27.2531 32.9556 25.4531 31.4933 23.9437Z" fill="black"/>
</g>
<defs>
<clipPath id="clip0_125_4544">
<rect width="33" height="33" fill="white"/>
</clipPath>
</defs>
</svg>
