<svg width="34" height="34" viewBox="0 0 34 34" fill="none" xmlns="http://www.w3.org/2000/svg">
<g clip-path="url(#clip0_1_74)">
<path d="M31.9933 24.3187C30.6247 22.9125 26.7346 20.2781 24.185 20.2781C23.5944 20.2781 23.0788 20.4094 22.657 20.6813C21.4103 21.4781 20.4167 22.0969 19.9386 22.0969C19.6762 22.0969 19.395 21.8625 18.7763 21.3281L18.6732 21.2344C16.9578 19.7437 16.5922 19.3594 15.9267 18.6656L15.7579 18.4875C15.6361 18.3656 15.533 18.2531 15.4299 18.15C14.8487 17.55 14.4269 17.1188 12.9364 15.4313L12.8708 15.3562C12.1584 14.55 11.6897 14.025 11.6616 13.6406C11.6335 13.2656 11.9616 12.6562 12.7958 11.5219C13.8082 10.1531 13.8457 8.46562 12.9177 6.50625C12.1772 4.95938 10.9679 3.47813 9.89933 2.175L9.80559 2.0625C8.88696 0.9375 7.81836 0.375 6.62789 0.375C5.30619 0.375 4.20946 1.0875 3.62828 1.4625C3.58141 1.49062 3.53455 1.52812 3.48768 1.55625C2.18472 2.38125 1.23797 3.51563 0.88177 4.66875C0.347465 6.40313 -0.00873768 8.65313 2.5503 13.3313C4.76251 17.3813 6.76849 20.1 9.95557 23.3719C12.9552 26.4469 14.2863 27.4406 17.2671 29.5969C20.5854 31.9969 23.7725 33.375 26.0035 33.375C28.0751 33.375 29.7061 33.375 32.0308 30.5719C34.468 27.6281 33.4556 25.8281 31.9933 24.3187Z" fill="white"/>
</g>
<defs>
<clipPath id="clip0_1_74">
<rect width="33" height="33" fill="white" transform="translate(0.5 0.375)"/>
</clipPath>
</defs>
</svg>
