<svg width="48" height="51" viewBox="0 0 48 51" fill="none" xmlns="http://www.w3.org/2000/svg">
<g clip-path="url(#clip0_125_4561)">
<path d="M39.8724 0H7.23911C2.75026 0 -0.888672 3.79606 -0.888672 8.47875V42.5212C-0.888672 47.2039 2.75026 51 7.23911 51H39.8724C44.3613 51 48.0002 47.2039 48.0002 42.5212V8.47875C48.0002 3.79606 44.3613 0 39.8724 0Z" fill="black"/>
<path d="M40.8887 23.4608V16.5596C32.4748 16.1789 32.2053 7.98562 32.2053 7.21573V7.15771H25.7029V34.0217C25.7024 35.1827 25.3603 36.3139 24.7254 37.2544C24.0904 38.1949 23.1948 38.8969 22.1661 39.2604C21.1373 39.6239 20.0278 39.6304 18.9954 39.2791C17.963 38.9278 17.0603 38.2364 16.4156 37.3034C15.771 36.3705 15.4174 35.2434 15.4049 34.0825C15.3925 32.9217 15.722 31.7862 16.3465 30.8377C16.971 29.8891 17.8588 29.1758 18.8834 28.7992C19.908 28.4226 21.0174 28.4019 22.0536 28.7401V21.6249C21.5542 21.5579 21.0514 21.5252 20.5481 21.527C18.2414 21.5277 15.9866 22.2615 14.069 23.6357C12.1515 25.0098 10.6571 26.9625 9.77505 29.2468C8.89297 31.5312 8.66276 34.0445 9.11352 36.4691C9.56428 38.8937 10.6758 41.1205 12.3074 42.8681C13.9391 44.6156 16.0176 45.8054 18.2802 46.2868C20.5428 46.7683 22.8877 46.5198 25.0186 45.5729C27.1494 44.626 28.9704 43.0232 30.2512 40.9671C31.532 38.911 32.2152 36.494 32.2143 34.0217C32.2143 33.8465 32.2143 33.6724 32.203 33.4996V20.2713C35.1971 23.207 40.8887 23.4608 40.8887 23.4608Z" fill="white"/>
</g>
<defs>
<clipPath id="clip0_125_4561">
<rect width="48" height="51" fill="white"/>
</clipPath>
</defs>
</svg>
