<svg width="48" height="52" viewBox="0 0 48 52" fill="none" xmlns="http://www.w3.org/2000/svg">
<g clip-path="url(#clip0_1_91)">
<path d="M39.8722 0.375H7.23889C2.75005 0.375 -0.888885 4.17106 -0.888885 8.85375V42.8962C-0.888885 47.5789 2.75005 51.375 7.23889 51.375H39.8722C44.3611 51.375 48 47.5789 48 42.8962V8.85375C48 4.17106 44.3611 0.375 39.8722 0.375Z" fill="white"/>
<path d="M40.8889 23.8359V16.9347C32.475 16.554 32.2055 8.36074 32.2055 7.59085V7.53284H25.7031V34.3969C25.7026 35.5578 25.3606 36.689 24.7256 37.6295C24.0906 38.57 23.195 39.272 22.1663 39.6355C21.1375 39.999 20.028 40.0056 18.9956 39.6542C17.9632 39.3029 17.0605 38.6115 16.4159 37.6786C15.7712 36.7456 15.4176 35.6185 15.4052 34.4577C15.3927 33.2968 15.7222 32.1613 16.3467 31.2128C16.9713 30.2642 17.859 29.5509 18.8836 29.1743C19.9082 28.7977 21.0176 28.777 22.0538 29.1152V22C21.5544 21.933 21.0516 21.9003 20.5483 21.9021C18.2416 21.9029 15.9869 22.6367 14.0693 24.0108C12.1517 25.3849 10.6573 27.3376 9.77527 29.6219C8.89319 31.9063 8.66297 34.4197 9.11373 36.8442C9.56449 39.2688 10.676 41.4957 12.3076 43.2432C13.9393 44.9907 16.0178 46.1805 18.2804 46.6619C20.543 47.1434 22.888 46.895 25.0188 45.948C27.1496 45.0011 28.9706 43.3983 30.2514 41.3422C31.5322 39.2861 32.2154 36.8691 32.2145 34.3969C32.2145 34.2216 32.2145 34.0476 32.2032 33.8747V20.6464C35.1973 23.5821 40.8889 23.8359 40.8889 23.8359Z" fill="black"/>
</g>
<defs>
<clipPath id="clip0_1_91">
<rect width="48" height="51" fill="white" transform="translate(0 0.375)"/>
</clipPath>
</defs>
</svg>
