<svg width="494" height="221" viewBox="0 0 494 221" fill="none" xmlns="http://www.w3.org/2000/svg">
<path d="M250.592 11.1325C249.413 10.9769 248.33 11.7967 248.173 12.9635C248.016 14.1303 248.844 15.2023 250.023 15.3579C251.205 15.5139 251.684 15.5786 252.194 15.6889C252.717 15.8022 253.284 15.966 254.623 16.3557C255.764 16.6878 256.961 16.0416 257.297 14.9123C257.633 13.783 256.98 12.5982 255.839 12.2661L255.747 12.2394C254.526 11.8841 253.805 11.6741 253.114 11.5246C252.411 11.3724 251.751 11.2854 250.675 11.1434L250.592 11.1325Z" fill="black"/>
<path d="M263.442 15.4579C262.383 14.9222 261.085 15.3376 260.544 16.3857C260.003 17.4327 260.421 18.7151 261.478 19.2519L261.481 19.2534L261.495 19.2608L261.509 19.2682C261.529 19.2788 261.559 19.2944 261.597 19.3152L261.625 19.3303L261.649 19.3437C261.778 19.4144 261.976 19.526 262.232 19.6793C262.744 19.9863 263.488 20.4592 264.377 21.1051C266.157 22.3994 268.501 24.3732 270.737 27.0786C275.18 32.4548 279.23 40.7425 277.559 52.5325C277.394 53.6982 278.215 54.7758 279.393 54.9393C280.571 55.1028 281.66 54.2903 281.825 53.1245C283.693 39.9466 279.128 30.4979 274.071 24.3798C271.557 21.3379 268.929 19.1251 266.926 17.6694C265.923 16.9403 265.072 16.3976 264.462 16.0325C264.157 15.8498 263.912 15.7114 263.739 15.616C263.652 15.5683 263.583 15.5314 263.533 15.5051L263.507 15.4916L263.472 15.4736L263.453 15.4638L263.444 15.459C263.444 15.459 263.442 15.4579 262.462 17.3558L263.442 15.4579Z" fill="black"/>
<path d="M227.823 20.0339C228.808 19.3737 229.066 18.0484 228.399 17.0738C227.731 16.0992 226.392 15.8444 225.407 16.5046C210.266 26.655 207.154 42.1769 208.951 53.1689C209.141 54.3309 210.247 55.1206 211.421 54.9326C212.595 54.7446 213.393 53.6502 213.203 52.4882C211.615 42.775 214.35 29.0662 227.823 20.0339Z" fill="black"/>
<path fill-rule="evenodd" clip-rule="evenodd" d="M259.077 47.3478C259.077 54.831 252.947 60.8974 245.385 60.8974C237.823 60.8974 231.692 54.831 231.692 47.3478C231.692 39.8645 237.823 33.7981 245.385 33.7981C252.947 33.7981 259.077 39.8645 259.077 47.3478ZM254.769 47.3478C254.769 52.4767 250.568 56.6346 245.385 56.6346C240.202 56.6346 236 52.4767 236 47.3478C236 42.2188 240.202 38.0609 245.385 38.0609C250.568 38.0609 254.769 42.2188 254.769 47.3478Z" fill="black"/>
<path d="M215.966 61.2459C215.481 60.1712 214.207 59.6892 213.121 60.1694C212.035 60.6496 211.548 61.9101 212.034 62.9849C215.487 70.6327 224.628 81.1378 239.519 83.4047C240.694 83.5837 241.794 82.7856 241.975 81.6222C242.156 80.4587 241.349 79.3704 240.174 79.1914C227.064 77.1956 218.975 67.909 215.966 61.2459Z" fill="black"/>
<path d="M280.056 59.8574C280.41 58.7337 279.777 57.5386 278.641 57.188C277.507 56.8379 276.301 57.4628 275.945 58.5838L275.945 58.5851L275.944 58.5864L275.938 58.6054C275.931 58.6267 275.919 58.663 275.901 58.7136C275.866 58.8149 275.809 58.9732 275.728 59.1816C275.566 59.5986 275.31 60.2151 274.944 60.9769C274.211 62.5028 273.045 64.5985 271.324 66.8393C267.888 71.3125 262.268 76.3395 253.454 78.6274C252.303 78.9261 251.615 80.0912 251.917 81.2299C252.218 82.3685 253.396 83.0494 254.546 82.7508C264.501 80.1669 270.881 74.4607 274.753 69.4187C276.686 66.9019 278 64.5444 278.835 62.8066C279.253 61.9366 279.552 61.2186 279.749 60.7091C279.848 60.4542 279.922 60.2512 279.972 60.107C279.987 60.0656 279.999 60.0291 280.01 59.9976L280.016 59.9792L280.024 59.9571L280.031 59.9356L280.038 59.9128L280.047 59.8845L280.053 59.8679L280.055 59.8619L280.056 59.8595C280.056 59.8595 280.056 59.8574 278 59.2228L280.056 59.8574Z" fill="black"/>
<path fill-rule="evenodd" clip-rule="evenodd" d="M293.538 47.5C293.538 73.7335 272.048 95 245.538 95C219.029 95 197.538 73.7335 197.538 47.5C197.538 21.2665 219.029 0 245.538 0C272.048 0 293.538 21.2665 293.538 47.5ZM289.231 47.5C289.231 71.3792 269.669 90.7372 245.538 90.7372C221.408 90.7372 201.846 71.3792 201.846 47.5C201.846 23.6208 221.408 4.26282 245.538 4.26282C269.669 4.26282 289.231 23.6208 289.231 47.5Z" fill="black"/>
<path fill-rule="evenodd" clip-rule="evenodd" d="M331.385 91.0417H315.077V2.13141H331.385V8.52564H344V17.3558H356V31.3622H368V61.8109H356V75.8173H344V84.3429H331.385V91.0417ZM356 57.5481V35.625H363.692V57.5481H356ZM351.692 21.6186V71.5545H344V21.6186H351.692ZM339.692 12.7885H332V80.0801H339.692V12.7885ZM327.077 86.7788V6.39423H319.385V86.7788H327.077Z" fill="black"/>
<path fill-rule="evenodd" clip-rule="evenodd" d="M124 61.8109V31.3622H136V17.3558H148V8.67788H160V2.13141H176.308V91.0417H160V84.4952H148V75.8173H136V61.8109H124ZM160 80.2324H152.308V12.9407H160V80.2324ZM172 6.39423H164.308V86.7788H172V6.39423ZM148 71.5545V21.6186H140.308V71.5545H148ZM136 57.5481V35.625H128.308V57.5481H136Z" fill="black"/>
<path d="M294.462 54.6554H312.923V50.3926H294.917C294.828 51.8313 294.675 53.2531 294.462 54.6554Z" fill="black"/>
<path d="M295.034 42.9327H312.752V38.6699H294.462C294.713 40.071 294.905 41.4929 295.034 42.9327Z" fill="black"/>
<path d="M196.167 50.3926H178.325V54.6554H196.615C196.406 53.2531 196.255 51.8313 196.167 50.3926Z" fill="black"/>
<path d="M196.615 38.6699H178.154V42.9327H196.052C196.179 41.4929 196.368 40.071 196.615 38.6699Z" fill="black"/>
<path d="M19.981 148.339H14.063V158.695H14.4575L27.4771 180H42.6665L19.981 148.339Z" fill="black"/>
<path d="M0.944824 128.218V180H12.7808V128.218H0.944824Z" fill="black"/>
<path d="M20.77 146.859L24.6167 152.284L42.0747 128.218H27.2798L15.0493 146.859H20.77Z" fill="black"/>
<path d="M66.0977 139.462V128.021C60.1797 128.481 55.1824 131.243 51.1055 136.306C47.0945 141.303 45.0889 147.254 45.0889 154.158H57.2208C57.2208 150.41 58.0756 147.155 59.7852 144.394C61.4949 141.632 63.599 139.988 66.0977 139.462Z" fill="black"/>
<path d="M77.9337 154.158C77.9337 158.235 76.9144 161.72 74.876 164.613C72.9034 167.507 70.4704 168.953 67.5772 168.953C64.947 168.953 62.6456 167.671 60.6729 165.106C58.7003 162.476 57.5824 159.287 57.3194 155.539H45.0889C45.4177 162.443 47.752 168.296 52.0919 173.096C56.4317 177.896 61.5935 180.296 67.5772 180.296C73.824 180.296 79.1172 177.764 83.4571 172.701C87.8627 167.572 90.0655 161.391 90.0655 154.158C90.0655 146.925 87.8627 140.744 83.4571 135.615C79.1172 130.486 73.824 127.922 67.5772 127.922V139.363C70.4704 139.363 72.9034 140.81 74.876 143.703C76.9144 146.596 77.9337 150.081 77.9337 154.158Z" fill="black"/>
<path d="M122.472 180V140.646H110.439V180H122.472Z" fill="black"/>
<path d="M96.6305 128.218V139.166H136.084V128.218H96.6305Z" fill="black"/>
<path d="M163.657 139.462V128.021C157.739 128.481 152.742 131.243 148.665 136.306C144.654 141.303 142.649 147.254 142.649 154.158H154.78C154.78 150.41 155.635 147.155 157.345 144.394C159.055 141.632 161.159 139.988 163.657 139.462Z" fill="black"/>
<path d="M175.493 154.158C175.493 158.235 174.474 161.72 172.436 164.613C170.463 167.507 168.03 168.953 165.137 168.953C162.507 168.953 160.205 167.671 158.233 165.106C156.26 162.476 155.142 159.287 154.879 155.539H142.649C142.977 162.443 145.312 168.296 149.652 173.096C153.991 177.896 159.153 180.296 165.137 180.296C171.384 180.296 176.677 177.764 181.017 172.701C185.422 167.572 187.625 161.391 187.625 154.158C187.625 146.925 185.422 140.744 181.017 135.615C176.677 130.486 171.384 127.922 165.137 127.922V139.363C168.03 139.363 170.463 140.81 172.436 143.703C174.474 146.596 175.493 150.081 175.493 154.158Z" fill="black"/>
<path d="M201.982 174.575C205.664 178.192 210.07 180 215.199 180V168.46C213.358 168.46 211.747 167.737 210.366 166.29C209.051 164.843 208.393 163.232 208.393 161.457V128.218H196.557V161.457C196.557 166.586 198.366 170.959 201.982 174.575Z" fill="black"/>
<path d="M216.678 168.263V179.901C221.413 179.507 225.391 177.534 228.613 173.983C231.901 170.433 233.545 166.257 233.545 161.457V128.218H222.103V161.457C222.103 162.969 221.577 164.383 220.525 165.698C219.539 167.013 218.257 167.868 216.678 168.263Z" fill="black"/>
<path d="M264.768 125.357L280.451 116.875L277.294 109.182L264.472 113.324L251.65 109.182L248.493 116.875L264.176 125.357H264.768Z" fill="black"/>
<path d="M257.765 164.613C255.661 161.72 254.609 158.235 254.609 154.158H242.477C242.477 161.391 244.713 167.572 249.184 172.701C253.721 177.764 259.179 180.296 265.557 180.296C273.053 180.296 278.938 177.567 283.212 172.109L274.237 164.811C272.198 167.572 269.305 168.953 265.557 168.953C262.532 168.953 259.935 167.507 257.765 164.613Z" fill="black"/>
<path d="M265.557 139.363C269.305 139.363 272.198 140.711 274.237 143.407L283.212 136.01C279.004 130.618 273.119 127.922 265.557 127.922C259.376 127.922 254.05 130.322 249.578 135.122C245.173 139.856 242.806 145.676 242.477 152.58H254.707C255.036 148.832 256.22 145.709 258.258 143.21C260.297 140.646 262.729 139.363 265.557 139.363Z" fill="black"/>
<path d="M310.096 139.462V128.021C304.178 128.481 299.18 131.243 295.103 136.306C291.092 141.303 289.087 147.254 289.087 154.158H301.219C301.219 150.41 302.073 147.155 303.783 144.394C305.493 141.632 307.597 139.988 310.096 139.462Z" fill="black"/>
<path d="M321.932 154.158C321.932 158.235 320.912 161.72 318.874 164.613C316.901 167.507 314.468 168.953 311.575 168.953C308.945 168.953 306.643 167.671 304.671 165.106C302.698 162.476 301.58 159.287 301.317 155.539H289.087C289.416 162.443 291.75 168.296 296.09 173.096C300.43 177.896 305.591 180.296 311.575 180.296C317.822 180.296 323.115 177.764 327.455 172.701C331.861 167.572 334.063 161.391 334.063 154.158C334.063 146.925 331.861 140.744 327.455 135.615C323.115 130.486 317.822 127.922 311.575 127.922V139.363C314.468 139.363 316.901 140.81 318.874 143.703C320.912 146.596 321.932 150.081 321.932 154.158Z" fill="black"/>
<path d="M350.689 128.218H338.162L356.705 180H369.133L350.689 128.218Z" fill="black"/>
<path d="M387.873 128.218H375.544L363.906 160.964L369.922 177.83L387.873 128.218Z" fill="black"/>
<path d="M423.239 128.218V180H434.483V128.218H423.239Z" fill="black"/>
<path d="M402.428 140.941H396.608V180H407.852V153.369L402.428 140.941Z" fill="black"/>
<path d="M421.76 180V154.75L410.121 128.218H396.312V139.462H403.414L420.971 180H421.76Z" fill="black"/>
<path d="M475.274 128.218H475.175L468.863 146.563L480.403 180H493.028L475.274 128.218Z" fill="black"/>
<path d="M455.843 180L459.493 169.348H475.175L471.526 158.991H463.043L473.597 128.218H461.071L443.317 180H455.843Z" fill="black"/>
<path d="M72.5 193C72.5 192.724 72.7239 192.5 73 192.5H419C419.276 192.5 419.5 192.724 419.5 193C419.5 193.276 419.276 193.5 419 193.5H73C72.7239 193.5 72.5 193.276 72.5 193Z" fill="black"/>
<path d="M215.077 208.486V216.133H218.593V208.486H215.077Z" fill="black"/>
<path d="M223.866 210.508H219.032V213.936H223.866V210.508Z" fill="black"/>
<path d="M224.95 216.572H214.989V220H224.95V216.572Z" fill="black"/>
<path d="M224.95 204.619H214.989V208.047H224.95V204.619Z" fill="black"/>
<path d="M230.194 208.047C230.526 207.852 230.937 207.754 231.425 207.754V204.531C229.843 204.531 228.563 204.932 227.587 205.732C226.63 206.514 226.151 207.539 226.151 208.809C226.151 210.059 226.513 211.016 227.235 211.68C227.978 212.344 228.964 212.871 230.194 213.262C230.468 213.359 230.858 213.477 231.366 213.613C231.874 213.75 232.255 213.867 232.509 213.965C232.782 214.043 233.065 214.15 233.358 214.287C233.671 214.424 233.896 214.58 234.032 214.756C234.169 214.912 234.237 215.107 234.237 215.342C234.237 215.811 233.974 216.191 233.446 216.484C232.938 216.758 232.265 216.895 231.425 216.895V220.088C233.339 220.088 234.872 219.648 236.024 218.77C237.196 217.871 237.782 216.699 237.782 215.254C237.782 214.043 237.411 213.086 236.669 212.383C235.927 211.68 234.95 211.104 233.739 210.654C233.427 210.537 233.036 210.41 232.567 210.273L231.425 209.893C231.132 209.795 230.839 209.688 230.546 209.57C230.253 209.453 230.038 209.326 229.901 209.189C229.765 209.033 229.696 208.867 229.696 208.691C229.696 208.438 229.862 208.223 230.194 208.047Z" fill="black"/>
<path d="M230.956 220.088V216.865C230.312 216.807 229.716 216.641 229.169 216.367C228.642 216.094 228.28 215.83 228.085 215.576L225.478 217.656C226.024 218.34 226.796 218.906 227.792 219.355C228.788 219.785 229.843 220.029 230.956 220.088Z" fill="black"/>
<path d="M231.835 204.531V207.754C232.89 207.871 233.71 208.301 234.296 209.043L236.903 206.934C235.731 205.449 234.042 204.648 231.835 204.531Z" fill="black"/>
<path d="M238.661 220H242.177V214.375H238.661V220Z" fill="black"/>
<path d="M238.573 213.936H246.132V210.508H238.573V213.936Z" fill="black"/>
<path d="M238.661 210.068H242.177V204.619H238.661V210.068Z" fill="black"/>
<path d="M250.087 204.619H246.571V220H250.087V204.619Z" fill="black"/>
<path d="M257.206 207.959V204.561C255.448 204.697 253.964 205.518 252.753 207.021C251.562 208.506 250.966 210.273 250.966 212.324H254.569C254.569 211.211 254.823 210.244 255.331 209.424C255.839 208.604 256.464 208.115 257.206 207.959Z" fill="black"/>
<path d="M260.722 212.324C260.722 213.535 260.419 214.57 259.813 215.43C259.228 216.289 258.505 216.719 257.646 216.719C256.864 216.719 256.181 216.338 255.595 215.576C255.009 214.795 254.677 213.848 254.599 212.734H250.966C251.063 214.785 251.757 216.523 253.046 217.949C254.335 219.375 255.868 220.088 257.646 220.088C259.501 220.088 261.073 219.336 262.362 217.832C263.671 216.309 264.325 214.473 264.325 212.324C264.325 210.176 263.671 208.34 262.362 206.816C261.073 205.293 259.501 204.531 257.646 204.531V207.93C258.505 207.93 259.228 208.359 259.813 209.219C260.419 210.078 260.722 211.113 260.722 212.324Z" fill="black"/>
<path d="M265.204 208.486V220H268.72V208.486H265.204Z" fill="black"/>
<path d="M273.788 210.098C273.788 210.664 273.583 211.152 273.173 211.562C272.782 211.973 272.323 212.178 271.796 212.178H269.159V215.605H271.796C273.319 215.605 274.618 215.068 275.692 213.994C276.767 212.92 277.304 211.621 277.304 210.098C277.304 208.574 276.767 207.285 275.692 206.23C274.618 205.156 273.319 204.619 271.796 204.619H265.116V208.047H271.796C272.323 208.047 272.782 208.252 273.173 208.662C273.583 209.053 273.788 209.531 273.788 210.098Z" fill="black"/>
</svg>
