<svg width="436" height="127" viewBox="0 0 436 127" fill="none" xmlns="http://www.w3.org/2000/svg">
<g clip-path="url(#clip0_1_25)">
<g filter="url(#filter0_d_1_25)">
<path d="M301.237 126.367H134.58L1.42969 -1H434.571L301.237 126.367Z" fill="white"/>
<path d="M301.237 126.367H134.58L1.42969 -1H434.571L301.237 126.367Z" stroke="black"/>
</g>
<path fill-rule="evenodd" clip-rule="evenodd" d="M223.865 37.9315C223.865 40.9237 221.398 43.3492 218.356 43.3492C215.313 43.3492 212.846 40.9237 212.846 37.9315C212.846 34.9394 215.313 32.5138 218.356 32.5138C221.398 32.5138 223.865 34.9394 223.865 37.9315ZM222.132 37.9315C222.132 39.9823 220.441 41.6448 218.356 41.6448C216.27 41.6448 214.579 39.9823 214.579 37.9315C214.579 35.8808 216.27 34.2183 218.356 34.2183C220.441 34.2183 222.132 35.8808 222.132 37.9315Z" fill="black"/>
<path d="M211.289 27.0103C211.686 26.7464 211.789 26.2165 211.521 25.8268C211.252 25.4371 210.714 25.3352 210.317 25.5992C204.225 29.6577 202.973 35.864 203.696 40.2591C203.772 40.7237 204.217 41.0394 204.689 40.9643C205.162 40.8891 205.483 40.4515 205.407 39.9869C204.768 36.1032 205.868 30.6218 211.289 27.0103Z" fill="black"/>
<path d="M205.374 43.0581C205.811 42.8661 206.323 43.0588 206.519 43.4886C207.729 46.1528 210.984 49.8659 216.259 50.6639C216.732 50.7355 217.056 51.1706 216.984 51.6358C216.911 52.101 216.468 52.4201 215.995 52.3486C210.004 51.4421 206.325 47.2418 204.936 44.1839C204.741 43.7542 204.937 43.2501 205.374 43.0581Z" fill="black"/>
<path d="M232.306 42.9334C232.449 42.4841 232.194 42.0062 231.737 41.8661C231.281 41.7261 230.795 41.9759 230.652 42.4242L230.652 42.4247L230.652 42.4252L230.649 42.4328C230.647 42.4413 230.642 42.4558 230.634 42.4761C230.62 42.5166 230.597 42.5798 230.565 42.6632C230.5 42.8299 230.397 43.0764 230.249 43.381C229.955 43.9912 229.485 44.8291 228.793 45.7251C227.41 47.5136 225.149 49.5236 221.602 50.4384C221.139 50.5578 220.862 51.0237 220.984 51.479C221.105 51.9342 221.579 52.2065 222.042 52.0871C226.047 51.0539 228.615 48.7724 230.173 46.7564C230.95 45.7501 231.479 44.8075 231.815 44.1126C231.983 43.7648 232.103 43.4777 232.183 43.2739C232.223 43.172 232.252 43.0908 232.273 43.0332C232.278 43.0167 232.283 43.002 232.288 42.9894L232.29 42.9821L232.293 42.9733L232.296 42.9647L232.299 42.9555L232.303 42.9442L232.305 42.9376L232.306 42.9352L232.306 42.9342C232.306 42.9342 232.306 42.9334 231.479 42.6796L232.306 42.9334Z" fill="black"/>
<path d="M224.455 25.5517C224.673 25.1326 225.195 24.9665 225.621 25.1807L225.227 25.9395C225.621 25.1807 225.622 25.1811 225.622 25.1811L225.626 25.183L225.634 25.187C225.637 25.1889 225.642 25.1913 225.648 25.1942L225.658 25.1996C225.678 25.2101 225.706 25.2248 225.741 25.2439C225.811 25.282 225.909 25.3374 226.032 25.4104C226.277 25.5564 226.62 25.7734 227.023 26.0649C227.829 26.647 228.887 27.5318 229.898 28.748C231.933 31.1943 233.77 34.9722 233.018 40.2413C232.952 40.7074 232.514 41.0323 232.04 40.9669C231.566 40.9016 231.235 40.4707 231.302 40.0046C231.974 35.2905 230.344 31.9768 228.556 29.8271C227.657 28.7454 226.714 27.9562 225.997 27.4387C225.64 27.1804 225.341 26.9913 225.134 26.8686C225.031 26.8073 224.952 26.7627 224.9 26.7344L224.89 26.729L224.879 26.723C224.863 26.7147 224.852 26.7084 224.844 26.7042L224.838 26.7012L224.832 26.6983L224.831 26.6977C224.406 26.483 224.238 25.9703 224.455 25.5517Z" fill="black"/>
<path d="M220.451 23.4512C219.977 23.389 219.541 23.7168 219.477 24.1833C219.414 24.6499 219.747 25.0785 220.222 25.1407C220.698 25.2031 220.89 25.229 221.095 25.2731C221.306 25.3184 221.534 25.3839 222.073 25.5397C222.532 25.6725 223.014 25.4141 223.149 24.9625C223.284 24.511 223.021 24.0373 222.562 23.9045L222.525 23.8938C222.034 23.7518 221.743 23.6678 221.466 23.608C221.183 23.5471 220.917 23.5123 220.484 23.4556L220.451 23.4512Z" fill="black"/>
<path fill-rule="evenodd" clip-rule="evenodd" d="M218.417 56.9848C229.084 56.9848 237.731 48.4816 237.731 37.9924C237.731 27.5032 229.084 19 218.417 19C207.751 19 199.104 27.5032 199.104 37.9924C199.104 48.4816 207.751 56.9848 218.417 56.9848ZM218.417 55.2804C228.127 55.2804 235.998 47.5403 235.998 37.9924C235.998 28.4445 228.127 20.7044 218.417 20.7044C208.708 20.7044 200.837 28.4445 200.837 37.9924C200.837 47.5403 208.708 55.2804 218.417 55.2804Z" fill="black"/>
<path fill-rule="evenodd" clip-rule="evenodd" d="M252.959 55.4021H246.398V19.8522H252.959V22.4089H258.036V25.9395H262.864V31.5399H267.692V43.7145H262.864V49.3148H258.036V52.7237H252.959V55.4021ZM262.864 42.01V33.2443H265.959V42.01H262.864ZM261.131 27.644V47.6104H258.036V27.644H261.131ZM256.302 24.1133H253.207V51.0193H256.302V24.1133ZM251.226 53.6977V21.5567H248.131V53.6977H251.226Z" fill="black"/>
<path fill-rule="evenodd" clip-rule="evenodd" d="M169.514 31.5399V43.7145H174.342V49.3148H179.171V52.7846H183.999V55.4021H190.561V19.8522H183.999V22.4698H179.171V25.9395H174.342V31.5399H169.514ZM180.904 51.0801H183.999V24.1742H180.904V51.0801ZM185.733 21.5567H188.828V53.6977H185.733V21.5567ZM179.171 27.644V47.6104H176.076V27.644H179.171ZM174.342 33.2443V42.01H171.247V33.2443H174.342Z" fill="black"/>
<path d="M238.103 40.8534H245.531V39.149H238.286C238.25 39.7242 238.188 40.2927 238.103 40.8534Z" fill="black"/>
<path d="M245.462 36.1662H238.333C238.281 35.5905 238.204 35.022 238.103 34.4618H245.462V36.1662Z" fill="black"/>
<path d="M198.552 39.149H191.372V40.8534H198.732C198.648 40.2927 198.587 39.7242 198.552 39.149Z" fill="black"/>
<path d="M191.304 34.4618H198.732C198.633 35.022 198.557 35.5905 198.506 36.1662H191.304V34.4618Z" fill="black"/>
<path d="M125.278 78.3119H127.66L136.788 90.9712H130.676L125.437 82.4528H125.278V78.3119ZM120 90.9712V70.2666H124.762V90.9712H120ZM129.525 79.8893L127.977 77.7203H125.675L130.596 70.2666H136.549L129.525 79.8893Z" fill="black"/>
<path d="M146.216 70.1878V74.7625C145.21 74.9728 144.364 75.6301 143.676 76.7344C142.988 77.8386 142.644 79.14 142.644 80.6387H137.762C137.762 77.878 138.569 75.4987 140.183 73.5005C141.824 71.476 143.834 70.3718 146.216 70.1878ZM149.748 84.819C150.568 83.6622 150.978 82.2687 150.978 80.6387C150.978 79.0086 150.568 77.6151 149.748 76.4583C148.954 75.3015 147.975 74.7231 146.811 74.7231V70.1483C149.324 70.1483 151.454 71.1737 153.201 73.2244C154.973 75.2752 155.86 77.7466 155.86 80.6387C155.86 83.5307 154.973 86.0021 153.201 88.0529C151.454 90.0773 149.324 91.0896 146.811 91.0896C144.403 91.0896 142.326 90.1299 140.58 88.2106C138.834 86.2913 137.895 83.9514 137.762 81.1908H142.683C142.789 82.6894 143.239 83.9645 144.033 85.0162C144.827 86.0416 145.753 86.5543 146.811 86.5543C147.975 86.5543 148.954 85.9758 149.748 84.819Z" fill="black"/>
<path d="M168.899 75.2357V90.9712H164.057V75.2357H168.899ZM158.501 74.6442V70.2666H174.376V74.6442H158.501Z" fill="black"/>
<path d="M185.471 70.1878V74.7625C184.465 74.9728 183.619 75.6301 182.931 76.7344C182.243 77.8386 181.899 79.14 181.899 80.6387H177.018C177.018 77.878 177.824 75.4987 179.438 73.5005C181.079 71.476 183.09 70.3718 185.471 70.1878ZM189.003 84.819C189.823 83.6622 190.233 82.2687 190.233 80.6387C190.233 79.0086 189.823 77.6151 189.003 76.4583C188.209 75.3015 187.23 74.7231 186.066 74.7231V70.1483C188.58 70.1483 190.71 71.1737 192.456 73.2244C194.228 75.2752 195.115 77.7466 195.115 80.6387C195.115 83.5307 194.228 86.0021 192.456 88.0529C190.71 90.0773 188.58 91.0896 186.066 91.0896C183.658 91.0896 181.582 90.1299 179.835 88.2106C178.089 86.2913 177.15 83.9514 177.018 81.1908H181.939C182.045 82.6894 182.494 83.9645 183.288 85.0162C184.082 86.0416 185.008 86.5543 186.066 86.5543C187.23 86.5543 188.209 85.9758 189.003 84.819Z" fill="black"/>
<path d="M206.21 90.9712C204.146 90.9712 202.373 90.2482 200.892 88.8022C199.436 87.3562 198.709 85.6078 198.709 83.557V70.2666H203.471V83.557C203.471 84.2669 203.736 84.911 204.265 85.4895C204.821 86.0679 205.469 86.3571 206.21 86.3571V90.9712ZM206.805 90.9318V86.2782C207.44 86.1205 207.956 85.7787 208.353 85.2528C208.776 84.727 208.988 84.1617 208.988 83.557V70.2666H213.591V83.557C213.591 85.4763 212.93 87.1458 211.607 88.5656C210.311 89.9853 208.71 90.7741 206.805 90.9318Z" fill="black"/>
<path d="M232.465 65.7313L226.155 69.1229H225.917L219.606 65.7313L220.876 62.6552L226.036 64.3116L231.195 62.6552L232.465 65.7313ZM222.067 80.6387C222.067 82.2687 222.49 83.6622 223.337 84.819C224.21 85.9758 225.255 86.5543 226.472 86.5543C227.98 86.5543 229.145 86.0021 229.965 84.8979L233.576 87.8163C231.856 89.9985 229.488 91.0896 226.472 91.0896C223.906 91.0896 221.71 90.0773 219.884 88.0529C218.085 86.0021 217.186 83.5307 217.186 80.6387H222.067ZM229.965 76.34C229.145 75.262 227.98 74.7231 226.472 74.7231C225.335 74.7231 224.356 75.2357 223.535 76.2611C222.715 77.2602 222.239 78.509 222.107 80.0077H217.186C217.318 77.247 218.27 74.9202 220.043 73.0272C221.842 71.108 223.985 70.1483 226.472 70.1483C229.515 70.1483 231.883 71.2263 233.576 73.3822L229.965 76.34Z" fill="black"/>
<path d="M244.393 70.1878V74.7625C243.388 74.9728 242.541 75.6301 241.853 76.7344C241.165 77.8386 240.822 79.14 240.822 80.6387H235.94C235.94 77.878 236.747 75.4987 238.361 73.5005C240.001 71.476 242.012 70.3718 244.393 70.1878ZM247.925 84.819C248.746 83.6622 249.156 82.2687 249.156 80.6387C249.156 79.0086 248.746 77.6151 247.925 76.4583C247.132 75.3015 246.153 74.7231 244.989 74.7231V70.1483C247.502 70.1483 249.632 71.1737 251.378 73.2244C253.151 75.2752 254.037 77.7466 254.037 80.6387C254.037 83.5307 253.151 86.0021 251.378 88.0529C249.632 90.0773 247.502 91.0896 244.989 91.0896C242.581 91.0896 240.504 90.1299 238.758 88.2106C237.012 86.2913 236.072 83.9514 235.94 81.1908H240.861C240.967 82.6894 241.417 83.9645 242.211 85.0162C243.004 86.0416 243.93 86.5543 244.989 86.5543C246.153 86.5543 247.132 85.9758 247.925 84.819Z" fill="black"/>
<path d="M255.687 70.2666H260.727L268.148 90.9712H263.148L255.687 70.2666ZM270.728 70.2666H275.689L268.466 90.1036L266.045 83.3598L270.728 70.2666Z" fill="black"/>
<path d="M289.919 90.9712V70.2666H294.443V90.9712H289.919ZM279.204 75.354H281.545L283.728 80.3232V90.9712H279.204V75.354ZM289.324 80.8753V90.9712H289.006L281.942 74.7625H279.085V70.2666H284.641L289.324 80.8753Z" fill="black"/>
<path d="M310.817 70.2666H310.856L318 90.9712H312.92L308.277 77.602L310.817 70.2666ZM304.506 86.712L303.038 90.9712H297.998L305.141 70.2666H310.182L305.935 82.5711H309.348L310.817 86.712H304.506Z" fill="black"/>
<path d="M183.946 106.965V102.361H185.36V106.965H183.946ZM185.537 103.38H187.753V104.751H185.537V103.38ZM183.91 100.815H187.918V102.186H183.91V100.815Z" fill="black"/>
<path d="M188.272 106.965V100.815H189.687V106.965H188.272Z" fill="black"/>
<path d="M193.093 102.291V106.965H191.655V102.291H193.093ZM190.005 102.115V100.815H194.72V102.115H190.005Z" fill="black"/>
<path d="M196.653 100.815L199.365 106.965H197.95L196.559 103.767V100.815H196.653ZM195.038 106.965V100.815H196.382V106.965H195.038ZM198.221 103.919V100.815H199.565V106.965L198.221 103.919Z" fill="black"/>
<path d="M200.06 105.419V102.361H201.475V105.419H200.06ZM201.652 103.169H203.597V104.54H201.652V103.169ZM200.025 105.594H204.033V106.965H200.025V105.594ZM200.025 100.815H204.033V102.186H200.025V100.815Z" fill="black"/>
<path d="M206.638 102.068C206.442 102.068 206.277 102.107 206.143 102.186C206.009 102.256 205.943 102.342 205.943 102.443C205.943 102.514 205.97 102.58 206.025 102.642C206.08 102.697 206.167 102.748 206.284 102.795C206.402 102.842 206.52 102.884 206.638 102.924C206.756 102.963 206.909 103.013 207.098 103.076C207.286 103.13 207.444 103.181 207.569 103.228C208.057 103.408 208.45 103.638 208.748 103.919C209.047 104.2 209.196 104.583 209.196 105.067C209.196 105.645 208.96 106.114 208.489 106.473C208.025 106.824 207.408 107 206.638 107V105.723C206.976 105.723 207.247 105.669 207.451 105.559C207.664 105.442 207.77 105.29 207.77 105.102C207.77 105.009 207.742 104.931 207.687 104.868C207.632 104.798 207.542 104.735 207.416 104.681C207.298 104.626 207.184 104.583 207.074 104.552C206.972 104.513 206.819 104.466 206.615 104.411C206.41 104.357 206.253 104.31 206.143 104.271C205.648 104.114 205.251 103.904 204.952 103.638C204.662 103.373 204.516 102.99 204.516 102.49C204.516 101.982 204.709 101.572 205.094 101.26C205.487 100.94 206.002 100.78 206.638 100.78V102.068ZM206.449 105.711V107C206.002 106.977 205.577 106.879 205.176 106.707C204.776 106.528 204.465 106.301 204.245 106.028L205.294 105.196C205.373 105.298 205.518 105.403 205.73 105.512C205.95 105.622 206.19 105.688 206.449 105.711ZM206.803 102.068V100.78C207.691 100.827 208.371 101.147 208.842 101.74L207.793 102.584C207.558 102.287 207.228 102.115 206.803 102.068Z" fill="black"/>
<path d="M211.801 102.068C211.605 102.068 211.44 102.107 211.306 102.186C211.173 102.256 211.106 102.342 211.106 102.443C211.106 102.514 211.133 102.58 211.188 102.642C211.243 102.697 211.33 102.748 211.448 102.795C211.566 102.842 211.683 102.884 211.801 102.924C211.919 102.963 212.072 103.013 212.261 103.076C212.45 103.13 212.607 103.181 212.733 103.228C213.22 103.408 213.613 103.638 213.911 103.919C214.21 104.2 214.359 104.583 214.359 105.067C214.359 105.645 214.124 106.114 213.652 106.473C213.188 106.824 212.571 107 211.801 107V105.723C212.139 105.723 212.41 105.669 212.615 105.559C212.827 105.442 212.933 105.29 212.933 105.102C212.933 105.009 212.905 104.931 212.85 104.868C212.795 104.798 212.705 104.735 212.579 104.681C212.461 104.626 212.348 104.583 212.237 104.552C212.135 104.513 211.982 104.466 211.778 104.411C211.573 104.357 211.416 104.31 211.306 104.271C210.811 104.114 210.414 103.904 210.116 103.638C209.825 103.373 209.679 102.99 209.679 102.49C209.679 101.982 209.872 101.572 210.257 101.26C210.65 100.94 211.165 100.78 211.801 100.78V102.068ZM211.613 105.711V107C211.165 106.977 210.74 106.879 210.34 106.707C209.939 106.528 209.628 106.301 209.408 106.028L210.457 105.196C210.536 105.298 210.681 105.403 210.894 105.512C211.114 105.622 211.353 105.688 211.613 105.711ZM211.966 102.068V100.78C212.854 100.827 213.534 101.147 214.006 101.74L212.957 102.584C212.721 102.287 212.391 102.115 211.966 102.068Z" fill="black"/>
<path d="M218.603 103.896C218.603 104.38 218.729 104.794 218.98 105.137C219.24 105.481 219.55 105.653 219.912 105.653C220.36 105.653 220.705 105.489 220.949 105.161L222.022 106.028C221.511 106.676 220.808 107 219.912 107C219.149 107 218.497 106.699 217.955 106.098C217.42 105.489 217.153 104.755 217.153 103.896H218.603ZM220.949 102.619C220.705 102.299 220.36 102.139 219.912 102.139C219.574 102.139 219.283 102.291 219.039 102.596C218.796 102.892 218.654 103.263 218.615 103.708H217.153C217.192 102.888 217.475 102.197 218.002 101.635C218.536 101.065 219.173 100.78 219.912 100.78C220.815 100.78 221.519 101.1 222.022 101.74L220.949 102.619Z" fill="black"/>
<path d="M222.399 105.419V102.361H223.814V105.419H222.399ZM223.99 103.169H225.935V104.54H223.99V103.169ZM222.364 105.594H226.372V106.965H222.364V105.594ZM222.364 100.815H226.372V102.186H222.364V100.815Z" fill="black"/>
<path d="M228.34 100.815L231.051 106.965H229.637L228.246 103.767V100.815H228.34ZM226.725 106.965V100.815H228.069V106.965H226.725ZM229.908 103.919V100.815H231.252V106.965L229.908 103.919Z" fill="black"/>
<path d="M234.659 102.291V106.965H233.221V102.291H234.659ZM231.57 102.115V100.815H236.285V102.115H231.57Z" fill="black"/>
<path d="M238.549 103.275C239.17 103.275 239.735 103.466 240.246 103.849C240.765 104.232 241.024 104.653 241.024 105.114V106.965H239.61V105.313C239.61 105.071 239.523 104.864 239.35 104.692C239.177 104.521 238.969 104.435 238.726 104.435H238.195V103.275H238.549ZM236.604 106.965V102.326H238.018V106.965H236.604ZM240.329 103.685C239.991 103.451 239.629 103.287 239.244 103.193C239.488 103.06 239.61 102.865 239.61 102.607C239.61 102.482 239.57 102.377 239.492 102.291C239.413 102.197 239.323 102.15 239.221 102.15H236.568V100.815H239.256C239.743 100.815 240.16 100.991 240.506 101.342C240.851 101.686 241.024 102.096 241.024 102.572C241.024 103.041 240.792 103.412 240.329 103.685Z" fill="black"/>
<path d="M243.571 106.965C242.958 106.965 242.431 106.75 241.991 106.321C241.559 105.891 241.343 105.372 241.343 104.763V100.815H242.757V104.763C242.757 104.973 242.836 105.165 242.993 105.337C243.158 105.508 243.351 105.594 243.571 105.594V106.965ZM243.747 106.953V105.571C243.936 105.524 244.089 105.423 244.207 105.266C244.333 105.11 244.396 104.942 244.396 104.763V100.815H245.763V104.763C245.763 105.333 245.567 105.829 245.174 106.25C244.789 106.672 244.313 106.906 243.747 106.953Z" fill="black"/>
<path d="M248.522 100.815L250.443 106.965H249.017L247.119 100.815H248.522ZM246.188 106.965V100.815H246.942L247.567 102.853V106.965H246.188ZM250.938 100.815H252.329L250.537 106.66L249.83 104.423L250.938 100.815ZM251.881 102.877L252.506 100.815H253.26V106.965H251.881V102.877Z" fill="black"/>
</g>
<defs>
<filter id="filter0_d_1_25" x="-3.81641" y="-4.5" width="443.634" height="136.367" filterUnits="userSpaceOnUse" color-interpolation-filters="sRGB">
<feFlood flood-opacity="0" result="BackgroundImageFix"/>
<feColorMatrix in="SourceAlpha" type="matrix" values="0 0 0 0 0 0 0 0 0 0 0 0 0 0 0 0 0 0 127 0" result="hardAlpha"/>
<feOffset dy="1"/>
<feGaussianBlur stdDeviation="2"/>
<feComposite in2="hardAlpha" operator="out"/>
<feColorMatrix type="matrix" values="0 0 0 0 0 0 0 0 0 0 0 0 0 0 0 0 0 0 0.25 0"/>
<feBlend mode="normal" in2="BackgroundImageFix" result="effect1_dropShadow_1_25"/>
<feBlend mode="normal" in="SourceGraphic" in2="effect1_dropShadow_1_25" result="shape"/>
</filter>
<clipPath id="clip0_1_25">
<rect width="436" height="127" fill="white"/>
</clipPath>
</defs>
</svg>
