<svg width="370" height="135" viewBox="0 0 370 135" fill="none" xmlns="http://www.w3.org/2000/svg">
<g filter="url(#filter0_d_1_28)">
<path d="M253.489 129H5V4H364L253.489 129Z" fill="white"/>
<path d="M253.489 129H5V4H364L253.489 129Z" stroke="black"/>
</g>
<path fill-rule="evenodd" clip-rule="evenodd" d="M138.553 38.7282C138.553 42.1624 135.737 44.9463 132.264 44.9463C128.791 44.9463 125.976 42.1624 125.976 38.7282C125.976 35.2941 128.791 32.5102 132.264 32.5102C135.737 32.5102 138.553 35.2941 138.553 38.7282ZM136.574 38.7282C136.574 41.082 134.645 42.9901 132.264 42.9901C129.884 42.9901 127.954 41.082 127.954 38.7282C127.954 36.3745 129.884 34.4664 132.264 34.4664C134.645 34.4664 136.574 36.3745 136.574 38.7282Z" fill="black"/>
<path d="M124.199 26.1937C124.651 25.8907 124.77 25.2826 124.463 24.8353C124.157 24.3881 123.542 24.2711 123.089 24.5741C116.135 29.2322 114.706 36.3553 115.531 41.3996C115.619 41.9329 116.126 42.2952 116.666 42.209C117.205 42.1227 117.572 41.6205 117.484 41.0872C116.755 36.6298 118.011 30.3387 124.199 26.1937Z" fill="black"/>
<path d="M117.447 44.6122C117.946 44.3918 118.531 44.613 118.753 45.1062C120.135 48.164 123.85 52.4256 129.871 53.3416C130.411 53.4237 130.782 53.9231 130.698 54.457C130.615 54.991 130.11 55.3572 129.57 55.275C122.732 54.2347 118.533 49.4139 116.947 45.9042C116.724 45.411 116.948 44.8326 117.447 44.6122Z" fill="black"/>
<path d="M148.188 44.469C148.351 43.9533 148.06 43.4049 147.538 43.244C147.017 43.0834 146.463 43.3701 146.3 43.8846L146.3 43.8851L146.3 43.8857L146.297 43.8945C146.294 43.9042 146.288 43.9209 146.28 43.9441C146.264 43.9906 146.237 44.0632 146.2 44.1589C146.126 44.3502 146.008 44.6331 145.84 44.9828C145.504 45.683 144.968 46.6448 144.177 47.6731C142.6 49.7258 140.018 52.0328 135.97 53.0827C135.442 53.2198 135.126 53.7545 135.264 54.277C135.403 54.7995 135.944 55.112 136.472 54.975C141.044 53.7892 143.974 51.1706 145.753 48.8568C146.64 47.7018 147.244 46.6199 147.627 45.8224C147.819 45.4232 147.956 45.0937 148.047 44.8599C148.093 44.7429 148.126 44.6497 148.15 44.5835C148.156 44.5646 148.162 44.5478 148.167 44.5333L148.17 44.5249L148.173 44.5148L148.176 44.5049L148.18 44.4944L148.184 44.4815L148.187 44.4739L148.187 44.4711L148.188 44.47C148.188 44.47 148.188 44.469 147.244 44.1778L148.188 44.469Z" fill="black"/>
<path d="M139.227 24.5195C139.475 24.0385 140.071 23.8479 140.558 24.0937L140.107 24.9647C140.558 24.0937 140.559 24.0942 140.559 24.0942L140.563 24.0964L140.572 24.1009C140.576 24.1032 140.581 24.106 140.588 24.1092L140.599 24.1154C140.622 24.1275 140.654 24.1444 140.694 24.1663C140.774 24.2101 140.886 24.2736 141.026 24.3574C141.306 24.525 141.697 24.7741 142.158 25.1086C143.078 25.7766 144.285 26.7921 145.439 28.1881C147.762 30.9957 149.858 35.3318 149.001 41.3793C148.925 41.9142 148.425 42.2871 147.884 42.2121C147.343 42.137 146.965 41.6425 147.041 41.1076C147.809 35.6971 145.949 31.8938 143.908 29.4266C142.881 28.185 141.805 27.2792 140.987 26.6853C140.579 26.3889 140.237 26.1719 140.002 26.031C139.884 25.9606 139.793 25.9094 139.734 25.877L139.723 25.8708L139.71 25.8639C139.693 25.8544 139.679 25.8472 139.67 25.8423L139.663 25.8389L139.657 25.8355L139.656 25.8348C139.17 25.5885 138.978 25 139.227 24.5195Z" fill="black"/>
<path d="M134.656 22.1088C134.115 22.0374 133.617 22.4136 133.545 22.949C133.473 23.4845 133.853 23.9765 134.395 24.0479C134.938 24.1194 135.157 24.1491 135.392 24.1998C135.632 24.2517 135.892 24.3269 136.507 24.5058C137.031 24.6582 137.581 24.3616 137.735 23.8434C137.89 23.3251 137.59 22.7814 137.066 22.629L137.023 22.6167C136.463 22.4537 136.131 22.3573 135.814 22.2887C135.491 22.2189 135.188 22.1789 134.694 22.1138L134.656 22.1088Z" fill="black"/>
<path fill-rule="evenodd" clip-rule="evenodd" d="M132.335 60.5962C144.51 60.5962 154.38 50.8369 154.38 38.7981C154.38 26.7593 144.51 17 132.335 17C120.16 17 110.29 26.7593 110.29 38.7981C110.29 50.8369 120.16 60.5962 132.335 60.5962ZM132.335 58.64C143.418 58.64 152.402 49.7565 152.402 38.7981C152.402 27.8397 143.418 18.9562 132.335 18.9562C121.253 18.9562 112.268 27.8397 112.268 38.7981C112.268 49.7565 121.253 58.64 132.335 58.64Z" fill="black"/>
<path fill-rule="evenodd" clip-rule="evenodd" d="M171.762 58.7797H164.272V17.9781H171.762V20.9125H177.556V24.9647H183.067V31.3923H188.578V45.3655H183.067V51.7931H177.556V55.7056H171.762V58.7797ZM183.067 43.4092V33.3486H186.6V43.4092H183.067ZM181.089 26.9209V49.8369H177.556V26.9209H181.089ZM175.577 22.8687H172.044V53.7494H175.577V22.8687ZM169.783 56.8235V19.9344H166.251V56.8235H169.783Z" fill="black"/>
<path fill-rule="evenodd" clip-rule="evenodd" d="M76.5158 31.3923V45.3655H82.0271V51.7931H87.5383V55.7755H93.0496V58.7797H100.539V17.9781H93.0496V20.9823H87.5383V24.9647H82.0271V31.3923H76.5158ZM89.5168 53.8192H93.0496V22.9386H89.5168V53.8192ZM95.028 19.9344H98.5609V56.8235H95.028V19.9344ZM87.5383 26.9209V49.8369H84.0055V26.9209H87.5383ZM82.0271 33.3486V43.4092H78.4942V33.3486H82.0271Z" fill="black"/>
<path d="M154.804 42.0818H163.283V40.1256H155.013C154.972 40.7858 154.902 41.4383 154.804 42.0818Z" fill="black"/>
<path d="M163.205 36.7021H155.067C155.008 36.0414 154.92 35.3889 154.804 34.7459H163.205V36.7021Z" fill="black"/>
<path d="M109.66 40.1256H101.466V42.0818H109.866C109.77 41.4383 109.701 40.7858 109.66 40.1256Z" fill="black"/>
<path d="M101.387 34.7459H109.866C109.752 35.3889 109.666 36.0414 109.607 36.7021H101.387V34.7459Z" fill="black"/>
<path d="M26.0248 85.0738H28.7428L39.1616 99.6034H32.1855L26.206 89.8265H26.0248V85.0738ZM20 99.6034V75.8401H25.4359V99.6034H20ZM30.8718 86.8844L29.1052 84.3949H26.4778L32.0949 75.8401H38.8898L30.8718 86.8844Z" fill="black"/>
<path d="M49.9229 75.7496V81.0001C48.7753 81.2415 47.8089 81.9959 47.0238 83.2633C46.2386 84.5307 45.846 86.0244 45.846 87.7444H40.2742C40.2742 84.5759 41.1952 81.845 43.0374 79.5517C44.9098 77.2282 47.2049 75.9608 49.9229 75.7496ZM53.9545 92.5423C54.8907 91.2146 55.3588 89.6153 55.3588 87.7444C55.3588 85.8735 54.8907 84.2742 53.9545 82.9465C53.0486 81.6187 51.9312 80.9549 50.6024 80.9549V75.7043C53.4714 75.7043 55.9024 76.8812 57.8956 79.2349C59.919 81.5886 60.9306 84.4251 60.9306 87.7444C60.9306 91.0637 59.919 93.9002 57.8956 96.2539C55.9024 98.5774 53.4714 99.7392 50.6024 99.7392C47.8542 99.7392 45.4836 98.6377 43.4904 96.4349C41.4972 94.2321 40.4252 91.5465 40.2742 88.3781H45.8913C46.0121 90.0981 46.5255 91.5616 47.4314 92.7686C48.3374 93.9454 49.3944 94.5339 50.6024 94.5339C51.9312 94.5339 53.0486 93.87 53.9545 92.5423Z" fill="black"/>
<path d="M75.8142 81.5433V99.6034H70.2877V81.5433H75.8142ZM63.9458 80.8643V75.8401H82.0655V80.8643H63.9458Z" fill="black"/>
<path d="M94.7294 75.7496V81.0001C93.5818 81.2415 92.6154 81.9959 91.8302 83.2633C91.045 84.5307 90.6524 86.0244 90.6524 87.7444H85.0806C85.0806 84.5759 86.0017 81.845 87.8439 79.5517C89.7162 77.2282 92.0114 75.9608 94.7294 75.7496ZM98.761 92.5423C99.6972 91.2146 100.165 89.6153 100.165 87.7444C100.165 85.8735 99.6972 84.2742 98.761 82.9465C97.855 81.6187 96.7376 80.9549 95.4088 80.9549V75.7043C98.2778 75.7043 100.709 76.8812 102.702 79.2349C104.725 81.5886 105.737 84.4251 105.737 87.7444C105.737 91.0637 104.725 93.9002 102.702 96.2539C100.709 98.5774 98.2778 99.7392 95.4088 99.7392C92.6607 99.7392 90.29 98.6377 88.2969 96.4349C86.3037 94.2321 85.2316 91.5465 85.0806 88.3781H90.6977C90.8185 90.0981 91.3319 91.5616 92.2379 92.7686C93.1439 93.9454 94.2009 94.5339 95.4088 94.5339C96.7376 94.5339 97.855 93.87 98.761 92.5423Z" fill="black"/>
<path d="M118.401 99.6034C116.045 99.6034 114.022 98.7735 112.331 97.1139C110.67 95.4542 109.839 93.4475 109.839 91.0939V75.8401H115.275V91.0939C115.275 91.9086 115.577 92.6479 116.181 93.3118C116.815 93.9756 117.555 94.3076 118.401 94.3076V99.6034ZM119.08 99.5581V94.217C119.805 94.036 120.394 93.6437 120.847 93.0402C121.33 92.4367 121.572 91.7879 121.572 91.0939V75.8401H126.827V91.0939C126.827 93.2967 126.072 95.2128 124.562 96.8423C123.082 98.4718 121.255 99.377 119.08 99.5581Z" fill="black"/>
<path d="M148.369 70.6348L141.167 74.5275H140.895L133.692 70.6348L135.142 67.1043L141.031 69.0053L146.92 67.1043L148.369 70.6348ZM136.501 87.7444C136.501 89.6153 136.984 91.2146 137.95 92.5423C138.947 93.87 140.14 94.5339 141.529 94.5339C143.25 94.5339 144.579 93.9002 145.515 92.6328L149.638 95.9823C147.675 98.4869 144.972 99.7392 141.529 99.7392C138.6 99.7392 136.093 98.5774 134.009 96.2539C131.956 93.9002 130.929 91.0637 130.929 87.7444H136.501ZM145.515 82.8107C144.579 81.5735 143.25 80.9549 141.529 80.9549C140.23 80.9549 139.113 81.5433 138.177 82.7201C137.241 83.8668 136.697 85.3001 136.546 87.0202H130.929C131.08 83.8517 132.167 81.1812 134.19 79.0085C136.244 76.8057 138.69 75.7043 141.529 75.7043C145.002 75.7043 147.705 76.9415 149.638 79.4159L145.515 82.8107Z" fill="black"/>
<path d="M161.984 75.7496V81.0001C160.837 81.2415 159.87 81.9959 159.085 83.2633C158.3 84.5307 157.907 86.0244 157.907 87.7444H152.336C152.336 84.5759 153.257 81.845 155.099 79.5517C156.971 77.2282 159.266 75.9608 161.984 75.7496ZM166.016 92.5423C166.952 91.2146 167.42 89.6153 167.42 87.7444C167.42 85.8735 166.952 84.2742 166.016 82.9465C165.11 81.6187 163.993 80.9549 162.664 80.9549V75.7043C165.533 75.7043 167.964 76.8812 169.957 79.2349C171.98 81.5886 172.992 84.4251 172.992 87.7444C172.992 91.0637 171.98 93.9002 169.957 96.2539C167.964 98.5774 165.533 99.7392 162.664 99.7392C159.916 99.7392 157.545 98.6377 155.552 96.4349C153.559 94.2321 152.487 91.5465 152.336 88.3781H157.953C158.073 90.0981 158.587 91.5616 159.493 92.7686C160.399 93.9454 161.456 94.5339 162.664 94.5339C163.993 94.5339 165.11 93.87 166.016 92.5423Z" fill="black"/>
<path d="M174.875 75.8401H180.628L189.099 99.6034H183.391L174.875 75.8401ZM192.043 75.8401H197.706L189.461 98.6076L186.698 90.8675L192.043 75.8401Z" fill="black"/>
<path d="M213.948 99.6034V75.8401H219.112V99.6034H213.948ZM201.717 81.6791H204.39L206.881 87.3823V99.6034H201.717V81.6791ZM213.269 88.0159V99.6034H212.906L204.843 81.0001H201.581V75.8401H207.923L213.269 88.0159Z" fill="black"/>
<path d="M237.801 75.8401H237.846L246 99.6034H240.202L234.902 84.2591L237.801 75.8401ZM230.598 94.7149L228.922 99.6034H223.169L231.323 75.8401H237.076L232.229 89.9623H236.125L237.801 94.7149H230.598Z" fill="black"/>
<path d="M92.9886 117.96V112.676H94.6032V117.96H92.9886ZM94.8051 113.846H97.3347V115.419H94.8051V113.846ZM92.9483 110.901H97.523V112.474H92.9483V110.901Z" fill="black"/>
<path d="M97.9267 117.96V110.901H99.5413V117.96H97.9267Z" fill="black"/>
<path d="M103.43 112.595V117.96H101.788V112.595H103.43ZM99.9046 112.394V110.901H105.287V112.394H99.9046Z" fill="black"/>
<path d="M107.493 110.901L110.588 117.96H108.973L107.386 114.289V110.901H107.493ZM105.65 117.96V110.901H107.184V117.96H105.65ZM109.283 114.464V110.901H110.817V117.96L109.283 114.464Z" fill="black"/>
<path d="M111.382 116.185V112.676H112.997V116.185H111.382ZM113.198 113.604H115.418V115.177H113.198V113.604ZM111.342 116.387H115.916V117.96H111.342V116.387ZM111.342 110.901H115.916V112.474H111.342V110.901Z" fill="black"/>
<path d="M118.89 112.34C118.666 112.34 118.477 112.385 118.325 112.474C118.172 112.555 118.096 112.654 118.096 112.77C118.096 112.851 118.127 112.927 118.19 112.999C118.253 113.061 118.352 113.12 118.486 113.173C118.621 113.227 118.755 113.276 118.89 113.321C119.025 113.366 119.199 113.424 119.415 113.496C119.63 113.559 119.809 113.617 119.953 113.671C120.509 113.877 120.958 114.141 121.298 114.464C121.639 114.787 121.81 115.226 121.81 115.782C121.81 116.445 121.541 116.983 121.002 117.395C120.473 117.798 119.769 118 118.89 118V116.535C119.276 116.535 119.585 116.472 119.818 116.346C120.061 116.212 120.182 116.037 120.182 115.822C120.182 115.714 120.15 115.625 120.087 115.553C120.025 115.472 119.922 115.401 119.778 115.338C119.643 115.275 119.513 115.226 119.388 115.19C119.271 115.145 119.096 115.091 118.863 115.029C118.63 114.966 118.45 114.912 118.325 114.867C117.76 114.688 117.307 114.446 116.966 114.141C116.634 113.837 116.468 113.397 116.468 112.824C116.468 112.241 116.688 111.771 117.127 111.412C117.576 111.045 118.163 110.861 118.89 110.861V112.34ZM118.675 116.521V118C118.163 117.973 117.679 117.861 117.222 117.664C116.764 117.458 116.41 117.198 116.159 116.884L117.356 115.93C117.446 116.046 117.612 116.167 117.854 116.293C118.105 116.418 118.379 116.494 118.675 116.521ZM119.078 112.34V110.861C120.092 110.915 120.868 111.282 121.406 111.963L120.209 112.931C119.939 112.591 119.563 112.394 119.078 112.34Z" fill="black"/>
<path d="M124.783 112.34C124.559 112.34 124.371 112.385 124.218 112.474C124.066 112.555 123.989 112.654 123.989 112.77C123.989 112.851 124.021 112.927 124.084 112.999C124.146 113.061 124.245 113.12 124.38 113.173C124.514 113.227 124.649 113.276 124.783 113.321C124.918 113.366 125.093 113.424 125.308 113.496C125.523 113.559 125.703 113.617 125.846 113.671C126.402 113.877 126.851 114.141 127.192 114.464C127.533 114.787 127.703 115.226 127.703 115.782C127.703 116.445 127.434 116.983 126.896 117.395C126.367 117.798 125.662 118 124.783 118V116.535C125.169 116.535 125.479 116.472 125.712 116.346C125.954 116.212 126.075 116.037 126.075 115.822C126.075 115.714 126.044 115.625 125.981 115.553C125.918 115.472 125.815 115.401 125.671 115.338C125.537 115.275 125.407 115.226 125.281 115.19C125.165 115.145 124.99 115.091 124.756 115.029C124.523 114.966 124.344 114.912 124.218 114.867C123.653 114.688 123.2 114.446 122.859 114.141C122.527 113.837 122.361 113.397 122.361 112.824C122.361 112.241 122.581 111.771 123.021 111.412C123.469 111.045 124.057 110.861 124.783 110.861V112.34ZM124.568 116.521V118C124.057 117.973 123.572 117.861 123.115 117.664C122.657 117.458 122.303 117.198 122.052 116.884L123.249 115.93C123.339 116.046 123.505 116.167 123.747 116.293C123.998 116.418 124.272 116.494 124.568 116.521ZM124.972 112.34V110.861C125.985 110.915 126.761 111.282 127.299 111.963L126.102 112.931C125.833 112.591 125.456 112.394 124.972 112.34Z" fill="black"/>
<path d="M132.547 114.437C132.547 114.993 132.691 115.468 132.978 115.862C133.274 116.257 133.628 116.454 134.041 116.454C134.552 116.454 134.947 116.266 135.225 115.889L136.449 116.884C135.866 117.628 135.063 118 134.041 118C133.17 118 132.426 117.655 131.807 116.965C131.197 116.266 130.892 115.423 130.892 114.437H132.547ZM135.225 112.972C134.947 112.604 134.552 112.421 134.041 112.421C133.655 112.421 133.323 112.595 133.045 112.945C132.767 113.285 132.605 113.711 132.56 114.222H130.892C130.937 113.281 131.26 112.488 131.861 111.842C132.471 111.188 133.197 110.861 134.041 110.861C135.072 110.861 135.875 111.228 136.449 111.963L135.225 112.972Z" fill="black"/>
<path d="M136.88 116.185V112.676H138.494V116.185H136.88ZM138.696 113.604H140.916V115.177H138.696V113.604ZM136.839 116.387H141.414V117.96H136.839V116.387ZM136.839 110.901H141.414V112.474H136.839V110.901Z" fill="black"/>
<path d="M143.661 110.901L146.756 117.96H145.141L143.553 114.289V110.901H143.661ZM141.818 117.96V110.901H143.352V117.96H141.818ZM145.451 114.464V110.901H146.984V117.96L145.451 114.464Z" fill="black"/>
<path d="M150.873 112.595V117.96H149.232V112.595H150.873ZM147.348 112.394V110.901H152.73V112.394H147.348Z" fill="black"/>
<path d="M155.313 113.725C156.022 113.725 156.668 113.944 157.251 114.383C157.843 114.823 158.139 115.307 158.139 115.835V117.96H156.524V116.064C156.524 115.786 156.426 115.549 156.228 115.351C156.031 115.154 155.793 115.056 155.515 115.056H154.91V113.725H155.313ZM153.093 117.96V112.636H154.708V117.96H153.093ZM157.345 114.195C156.959 113.926 156.547 113.738 156.107 113.631C156.385 113.478 156.524 113.254 156.524 112.958C156.524 112.815 156.479 112.694 156.39 112.595C156.3 112.488 156.197 112.434 156.08 112.434H153.053V110.901H156.121C156.677 110.901 157.152 111.103 157.547 111.506C157.942 111.901 158.139 112.371 158.139 112.918C158.139 113.456 157.874 113.881 157.345 114.195Z" fill="black"/>
<path d="M161.045 117.96C160.346 117.96 159.745 117.713 159.242 117.22C158.749 116.727 158.502 116.131 158.502 115.432V110.901H160.117V115.432C160.117 115.674 160.206 115.894 160.386 116.091C160.574 116.288 160.794 116.387 161.045 116.387V117.96ZM161.247 117.946V116.36C161.462 116.306 161.637 116.189 161.772 116.01C161.915 115.831 161.987 115.638 161.987 115.432V110.901H163.548V115.432C163.548 116.086 163.324 116.656 162.875 117.14C162.436 117.624 161.893 117.892 161.247 117.946Z" fill="black"/>
<path d="M166.696 110.901L168.89 117.96H167.262L165.095 110.901H166.696ZM164.032 117.96V110.901H164.893L165.607 113.241V117.96H164.032ZM169.455 110.901H171.042L168.997 117.61L168.19 115.042L169.455 110.901ZM170.531 113.268L171.244 110.901H172.105V117.96H170.531V113.268Z" fill="black"/>
<defs>
<filter id="filter0_d_1_28" x="0.5" y="0.5" width="368.609" height="134" filterUnits="userSpaceOnUse" color-interpolation-filters="sRGB">
<feFlood flood-opacity="0" result="BackgroundImageFix"/>
<feColorMatrix in="SourceAlpha" type="matrix" values="0 0 0 0 0 0 0 0 0 0 0 0 0 0 0 0 0 0 127 0" result="hardAlpha"/>
<feOffset dy="1"/>
<feGaussianBlur stdDeviation="2"/>
<feComposite in2="hardAlpha" operator="out"/>
<feColorMatrix type="matrix" values="0 0 0 0 0 0 0 0 0 0 0 0 0 0 0 0 0 0 0.25 0"/>
<feBlend mode="normal" in2="BackgroundImageFix" result="effect1_dropShadow_1_28"/>
<feBlend mode="normal" in="SourceGraphic" in2="effect1_dropShadow_1_28" result="shape"/>
</filter>
</defs>
</svg>
