<svg xmlns="http://www.w3.org/2000/svg" fill="none" viewBox="4 0 240 71">
<g filter="url(#filter0_d_79_210)">
<mask id="path-1-outside-1_79_210" maskUnits="userSpaceOnUse" x="4" y="0" width="240" height="71" fill="black" data-darkreader-inline-fill="" style="--darkreader-inline-fill:#e8e6e3;">
<rect fill="white" x="4" width="240" height="71" data-darkreader-inline-fill="" style="--darkreader-inline-fill:#181a1b;"/>
<path fill-rule="evenodd" clip-rule="evenodd" d="M78.6659 69.7396L7 1.00002L78.6659 1.00001L78.9374 1L168.791 1.00001L240.729 1.00002L168.791 70L78.9374 70L78.6659 70V69.7396Z"/>
</mask>
<path fill-rule="evenodd" clip-rule="evenodd" d="M78.6659 69.7396L7 1.00002L78.6659 1.00001L78.9374 1L168.791 1.00001L240.729 1.00002L168.791 70L78.9374 70L78.6659 70V69.7396Z" fill="white" data-darkreader-inline-fill="" style="--darkreader-inline-fill:#181a1b;"/>
<path d="M7 1.00002L7 1.56164e-05L4.5128 1.57952e-05L6.30778 1.7217L7 1.00002ZM78.6659 69.7396H79.6659V69.3131L79.3581 69.0179L78.6659 69.7396ZM78.6659 1.00001V2.00001H78.6659L78.6659 1.00001ZM78.9374 1V0H78.9373L78.9374 1ZM168.791 1.00001V6.91414e-06V1.00001ZM240.729 1.00002L241.421 1.7217L243.216 1.59144e-05L240.729 1.56164e-05V1.00002ZM168.791 70V71H169.193L169.483 70.7217L168.791 70ZM78.9374 70V69H78.9373L78.9374 70ZM78.6659 70H77.6659V71L78.6659 71L78.6659 70ZM6.30778 1.7217L77.9737 70.4613L79.3581 69.0179L7.69222 0.278328L6.30778 1.7217ZM78.6659 1.00136e-05L7 1.56164e-05L7 2.00002L78.6659 2.00001V1.00136e-05ZM78.9373 0L78.6659 1.00136e-05L78.6659 2.00001L78.9374 2L78.9373 0ZM168.791 6.91414e-06L78.9374 0V2L168.791 2.00001V6.91414e-06ZM240.729 1.56164e-05L168.791 6.91414e-06V2.00001L240.729 2.00002V1.56164e-05ZM169.483 70.7217L241.421 1.7217L240.036 0.278328L168.099 69.2783L169.483 70.7217ZM78.9374 71L168.791 71V69L78.9374 69V71ZM78.6659 71L78.9374 71L78.9373 69L78.6659 69L78.6659 71ZM77.6659 69.7396V70H79.6659V69.7396H77.6659Z" fill="black" mask="url(#path-1-outside-1_79_210)" data-darkreader-inline-fill="" style="--darkreader-inline-fill:#000000;"/>
</g>
<path d="M124.879 8.73143C124.592 8.69325 124.328 8.89439 124.289 9.18068C124.251 9.46697 124.453 9.72999 124.741 9.76816C125.029 9.80643 125.146 9.82231 125.27 9.84939C125.397 9.87717 125.536 9.91737 125.862 10.013C126.141 10.0945 126.433 9.93592 126.514 9.65883C126.596 9.38175 126.437 9.09106 126.159 9.00957L126.136 9.00301C125.839 8.91585 125.663 8.86431 125.494 8.82764C125.323 8.79028 125.162 8.76894 124.9 8.7341L124.879 8.73143Z" fill="black" data-darkreader-inline-fill="" style="--darkreader-inline-fill:#e8e6e3;"/>
<path d="M128.013 9.79269C127.755 9.66125 127.438 9.76317 127.306 10.0203C127.174 10.2772 127.276 10.5919 127.534 10.7236L127.535 10.7239L127.538 10.7258L127.542 10.7276C127.546 10.7302 127.554 10.734 127.563 10.7391L127.57 10.7428L127.576 10.7461C127.607 10.7634 127.655 10.7908 127.718 10.8285C127.843 10.9038 128.024 11.0198 128.241 11.1783C128.675 11.4958 129.247 11.9801 129.792 12.6439C130.875 13.963 131.863 15.9964 131.456 18.8892C131.415 19.1752 131.616 19.4396 131.903 19.4797C132.19 19.5198 132.456 19.3205 132.496 19.0345C132.951 15.8012 131.838 13.4829 130.605 11.9817C129.992 11.2354 129.351 10.6925 128.863 10.3353C128.618 10.1564 128.41 10.0232 128.262 9.93367C128.187 9.88886 128.128 9.85489 128.085 9.83149C128.064 9.81979 128.047 9.81073 128.035 9.80428L128.029 9.80097L128.02 9.79654L128.016 9.79414L128.013 9.79296C128.013 9.79296 128.013 9.79269 127.774 10.2584L128.013 9.79269Z" fill="black" data-darkreader-inline-fill="" style="--darkreader-inline-fill:#e8e6e3;"/>
<path d="M119.327 10.9154C119.567 10.7535 119.63 10.4283 119.467 10.1892C119.304 9.95006 118.978 9.88753 118.738 10.0495C115.045 12.54 114.286 16.3484 114.725 19.0453C114.771 19.3304 115.041 19.5242 115.327 19.4781C115.613 19.4319 115.808 19.1634 115.762 18.8783C115.374 16.4951 116.041 13.1316 119.327 10.9154Z" fill="black" data-darkreader-inline-fill="" style="--darkreader-inline-fill:#e8e6e3;"/>
<path fill-rule="evenodd" clip-rule="evenodd" d="M126.948 17.6171C126.948 19.4532 125.454 20.9416 123.609 20.9416C121.765 20.9416 120.27 19.4532 120.27 17.6171C120.27 15.781 121.765 14.2926 123.609 14.2926C125.454 14.2926 126.948 15.781 126.948 17.6171ZM125.898 17.6171C125.898 18.8755 124.873 19.8957 123.609 19.8957C122.345 19.8957 121.321 18.8755 121.321 17.6171C121.321 16.3587 122.345 15.3385 123.609 15.3385C124.873 15.3385 125.898 16.3587 125.898 17.6171Z" fill="black" data-darkreader-inline-fill="" style="--darkreader-inline-fill:#e8e6e3;"/>
<path d="M116.435 21.0271C116.317 20.7634 116.006 20.6451 115.742 20.763C115.477 20.8808 115.358 21.1901 115.476 21.4537C116.318 23.3302 118.548 25.9077 122.179 26.4639C122.466 26.5078 122.734 26.312 122.778 26.0265C122.822 25.7411 122.625 25.4741 122.339 25.4301C119.142 24.9404 117.169 22.6619 116.435 21.0271Z" fill="black" data-darkreader-inline-fill="" style="--darkreader-inline-fill:#e8e6e3;"/>
<path d="M132.064 20.6864C132.151 20.4107 131.996 20.1175 131.719 20.0315C131.443 19.9456 131.149 20.0989 131.062 20.3739L131.062 20.3742L131.062 20.3746L131.06 20.3792C131.059 20.3844 131.056 20.3934 131.051 20.4058C131.043 20.4306 131.029 20.4694 131.009 20.5206C130.969 20.6229 130.907 20.7742 130.818 20.9611C130.639 21.3355 130.355 21.8497 129.935 22.3995C129.097 23.497 127.727 24.7304 125.577 25.2918C125.297 25.365 125.129 25.6509 125.202 25.9303C125.276 26.2097 125.563 26.3767 125.844 26.3034C128.271 25.6695 129.827 24.2694 130.771 23.0323C131.243 22.4148 131.563 21.8364 131.767 21.41C131.868 21.1966 131.941 21.0204 131.99 20.8954C132.014 20.8328 132.032 20.783 132.044 20.7476C132.048 20.7375 132.051 20.7285 132.053 20.7208L132.055 20.7163L132.057 20.7109L132.058 20.7056L132.06 20.7L132.062 20.6931L132.064 20.689L132.064 20.6875L132.064 20.6869C132.064 20.6869 132.064 20.6864 131.563 20.5307L132.064 20.6864Z" fill="black" data-darkreader-inline-fill="" style="--darkreader-inline-fill:#e8e6e3;"/>
<path fill-rule="evenodd" clip-rule="evenodd" d="M135.352 17.6544C135.352 24.091 130.112 29.3089 123.647 29.3089C117.182 29.3089 111.942 24.091 111.942 17.6544C111.942 11.2179 117.182 6 123.647 6C130.112 6 135.352 11.2179 135.352 17.6544ZM134.302 17.6544C134.302 23.5134 129.531 28.263 123.647 28.263C117.762 28.263 112.992 23.5134 112.992 17.6544C112.992 11.7955 117.762 7.04591 123.647 7.04591C129.531 7.04591 134.302 11.7955 134.302 17.6544Z" fill="black" data-darkreader-inline-fill="" style="--darkreader-inline-fill:#000000;"/>
<path fill-rule="evenodd" clip-rule="evenodd" d="M144.581 28.3377H140.605V6.52296H144.581V8.09182H147.658V10.2584H150.584V13.6949H153.511V21.1657H150.584V24.6023H147.658V26.6941H144.581V28.3377ZM150.584 20.1198V14.7408H152.46V20.1198H150.584ZM149.534 11.3043V23.5564H147.658V11.3043H149.534ZM146.607 9.13773H144.732V25.6482H146.607V9.13773ZM143.531 27.2918V7.56887H141.655V27.2918H143.531Z" fill="black" data-darkreader-inline-fill="" style="--darkreader-inline-fill:#e8e6e3;"/>
<path fill-rule="evenodd" clip-rule="evenodd" d="M94.0084 21.1657V13.6949H96.9347V10.2584H99.8611V8.12918H102.787V6.52296H106.764V28.3377H102.787V26.7314H99.8611V24.6023H96.9347V21.1657H94.0084ZM102.787 25.6855H100.912V9.17509H102.787V25.6855ZM105.714 7.56887H103.838V27.2918H105.714V7.56887ZM99.8611 23.5564V11.3043H97.9852V23.5564H99.8611ZM96.9347 20.1198V14.7408H95.0589V20.1198H96.9347Z" fill="black" data-darkreader-inline-fill="" style="--darkreader-inline-fill:#e8e6e3;"/>
<path d="M135.577 19.4101H140.079V18.3642H135.689C135.667 18.7171 135.629 19.066 135.577 19.4101Z" fill="black" data-darkreader-inline-fill="" style="--darkreader-inline-fill:#e8e6e3;"/>
<path d="M135.717 16.5338H140.038V15.4879H135.577C135.639 15.8317 135.685 16.1805 135.717 16.5338Z" fill="black" data-darkreader-inline-fill="" style="--darkreader-inline-fill:#e8e6e3;"/>
<path d="M111.607 18.3642H107.256V19.4101H111.716C111.665 19.066 111.629 18.7171 111.607 18.3642Z" fill="black" data-darkreader-inline-fill="" style="--darkreader-inline-fill:#e8e6e3;"/>
<path d="M111.716 15.4879H107.214V16.5338H111.579C111.61 16.1805 111.656 15.8317 111.716 15.4879Z" fill="black" data-darkreader-inline-fill="" style="--darkreader-inline-fill:#e8e6e3;"/>
<path d="M68.6422 42.3959H67.199V44.9369H67.2952L70.4702 50.1642H74.1743L68.6422 42.3959Z" fill="black" data-darkreader-inline-fill="" style="--darkreader-inline-fill:#e8e6e3;"/>
<path d="M64 37.4591V50.1642H66.8863V37.4591H64Z" fill="black" data-darkreader-inline-fill="" style="--darkreader-inline-fill:#e8e6e3;"/>
<path d="M68.8346 42.0329L69.7727 43.3639L74.03 37.4591H70.4221L67.4395 42.0329H68.8346Z" fill="black" data-darkreader-inline-fill="" style="--darkreader-inline-fill:#e8e6e3;"/>
<path d="M79.8883 40.2179V37.4107C78.4451 37.5236 77.2264 38.2012 76.2323 39.4435C75.2541 40.6696 74.765 42.1297 74.765 43.8237H77.7235C77.7235 42.9041 77.932 42.1055 78.3489 41.4279C78.7658 40.7503 79.2789 40.347 79.8883 40.2179Z" fill="black" data-darkreader-inline-fill="" style="--darkreader-inline-fill:#e8e6e3;"/>
<path d="M82.7746 43.8237C82.7746 44.824 82.5261 45.6791 82.029 46.3889C81.5479 47.0988 80.9546 47.4538 80.2491 47.4538C79.6077 47.4538 79.0464 47.1391 78.5654 46.5099C78.0843 45.8646 77.8117 45.0821 77.7476 44.1625H74.765C74.8452 45.8565 75.4145 47.2924 76.4728 48.4702C77.5311 49.6479 78.7899 50.2368 80.2491 50.2368C81.7724 50.2368 83.0632 49.6156 84.1215 48.3734C85.1959 47.1149 85.7331 45.5984 85.7331 43.8237C85.7331 42.049 85.1959 40.5325 84.1215 39.2741C83.0632 38.0157 81.7724 37.3865 80.2491 37.3865V40.1937C80.9546 40.1937 81.5479 40.5486 82.029 41.2585C82.5261 41.9684 82.7746 42.8234 82.7746 43.8237Z" fill="black" data-darkreader-inline-fill="" style="--darkreader-inline-fill:#e8e6e3;"/>
<path d="M93.6358 50.1642V40.5083H90.7014V50.1642H93.6358Z" fill="black" data-darkreader-inline-fill="" style="--darkreader-inline-fill:#e8e6e3;"/>
<path d="M87.334 37.4591V40.1453H96.9551V37.4591H87.334Z" fill="black" data-darkreader-inline-fill="" style="--darkreader-inline-fill:#e8e6e3;"/>
<path d="M103.679 40.2179V37.4107C102.236 37.5236 101.017 38.2012 100.023 39.4435C99.0451 40.6696 98.5561 42.1297 98.5561 43.8237H101.515C101.515 42.9041 101.723 42.1055 102.14 41.4279C102.557 40.7503 103.07 40.347 103.679 40.2179Z" fill="black" data-darkreader-inline-fill="" style="--darkreader-inline-fill:#e8e6e3;"/>
<path d="M106.566 43.8237C106.566 44.824 106.317 45.6791 105.82 46.3889C105.339 47.0988 104.746 47.4538 104.04 47.4538C103.399 47.4538 102.837 47.1391 102.356 46.5099C101.875 45.8646 101.603 45.0821 101.539 44.1625H98.5561C98.6362 45.8565 99.2055 47.2924 100.264 48.4702C101.322 49.6479 102.581 50.2368 104.04 50.2368C105.563 50.2368 106.854 49.6156 107.913 48.3734C108.987 47.1149 109.524 45.5984 109.524 43.8237C109.524 42.049 108.987 40.5325 107.913 39.2741C106.854 38.0157 105.563 37.3865 104.04 37.3865V40.1937C104.746 40.1937 105.339 40.5486 105.82 41.2585C106.317 41.9684 106.566 42.8234 106.566 43.8237Z" fill="black" data-darkreader-inline-fill="" style="--darkreader-inline-fill:#e8e6e3;"/>
<path d="M113.025 48.8332C113.923 49.7205 114.998 50.1642 116.248 50.1642V47.3328C115.799 47.3328 115.406 47.1553 115.07 46.8003C114.749 46.4454 114.589 46.0501 114.589 45.6145V37.4591H111.702V45.6145C111.702 46.8729 112.143 47.9458 113.025 48.8332Z" fill="black" data-darkreader-inline-fill="" style="--darkreader-inline-fill:#e8e6e3;"/>
<path d="M116.609 47.2844V50.14C117.764 50.0432 118.734 49.5592 119.519 48.688C120.321 47.8168 120.722 46.7923 120.722 45.6145V37.4591H117.932V45.6145C117.932 45.9856 117.804 46.3325 117.547 46.6551C117.307 46.9778 116.994 47.1875 116.609 47.2844Z" fill="black" data-darkreader-inline-fill="" style="--darkreader-inline-fill:#e8e6e3;"/>
<path d="M128.336 36.7573L132.161 34.676L131.391 32.7884L128.264 33.8048L125.137 32.7884L124.368 34.676L128.192 36.7573H128.336Z" fill="black" data-darkreader-inline-fill="" style="--darkreader-inline-fill:#e8e6e3;"/>
<path d="M126.628 46.3889C126.115 45.6791 125.859 44.824 125.859 43.8237H122.9C122.9 45.5984 123.446 47.1149 124.536 48.3734C125.642 49.6156 126.973 50.2368 128.529 50.2368C130.357 50.2368 131.792 49.5672 132.834 48.2282L130.645 46.4373C130.148 47.1149 129.443 47.4538 128.529 47.4538C127.791 47.4538 127.158 47.0988 126.628 46.3889Z" fill="black" data-darkreader-inline-fill="" style="--darkreader-inline-fill:#e8e6e3;"/>
<path d="M128.529 40.1937C129.443 40.1937 130.148 40.5244 130.645 41.1859L132.834 39.3709C131.808 38.0479 130.373 37.3865 128.529 37.3865C127.021 37.3865 125.723 37.9753 124.632 39.1531C123.558 40.3147 122.98 41.7425 122.9 43.4365H125.883C125.963 42.5169 126.252 41.7506 126.749 41.1375C127.246 40.5083 127.839 40.1937 128.529 40.1937Z" fill="black" data-darkreader-inline-fill="" style="--darkreader-inline-fill:#e8e6e3;"/>
<path d="M139.39 40.2179V37.4107C137.947 37.5236 136.728 38.2012 135.734 39.4435C134.756 40.6696 134.267 42.1297 134.267 43.8237H137.225C137.225 42.9041 137.434 42.1055 137.851 41.4279C138.267 40.7503 138.781 40.347 139.39 40.2179Z" fill="black" data-darkreader-inline-fill="" style="--darkreader-inline-fill:#e8e6e3;"/>
<path d="M142.276 43.8237C142.276 44.824 142.028 45.6791 141.531 46.3889C141.05 47.0988 140.456 47.4538 139.751 47.4538C139.109 47.4538 138.548 47.1391 138.067 46.5099C137.586 45.8646 137.313 45.0821 137.249 44.1625H134.267C134.347 45.8565 134.916 47.2924 135.974 48.4702C137.033 49.6479 138.292 50.2368 139.751 50.2368C141.274 50.2368 142.565 49.6156 143.623 48.3734C144.698 47.1149 145.235 45.5984 145.235 43.8237C145.235 42.049 144.698 40.5325 143.623 39.2741C142.565 38.0157 141.274 37.3865 139.751 37.3865V40.1937C140.456 40.1937 141.05 40.5486 141.531 41.2585C142.028 41.9684 142.276 42.8234 142.276 43.8237Z" fill="black" data-darkreader-inline-fill="" style="--darkreader-inline-fill:#e8e6e3;"/>
<path d="M149.289 37.4591H146.234L150.756 50.1642H153.787L149.289 37.4591Z" fill="black" data-darkreader-inline-fill="" style="--darkreader-inline-fill:#e8e6e3;"/>
<path d="M158.357 37.4591H155.35L152.512 45.4935L153.979 49.6318L158.357 37.4591Z" fill="black" data-darkreader-inline-fill="" style="--darkreader-inline-fill:#e8e6e3;"/>
<path d="M166.981 37.4591V50.1642H169.723V37.4591H166.981Z" fill="black" data-darkreader-inline-fill="" style="--darkreader-inline-fill:#e8e6e3;"/>
<path d="M161.906 40.5809H160.487V50.1642H163.229V43.6301L161.906 40.5809Z" fill="black" data-darkreader-inline-fill="" style="--darkreader-inline-fill:#e8e6e3;"/>
<path d="M166.62 50.1642V43.9689L163.782 37.4591H160.415V40.2179H162.147L166.428 50.1642H166.62Z" fill="black" data-darkreader-inline-fill="" style="--darkreader-inline-fill:#e8e6e3;"/>
<path d="M179.671 37.4591H179.646L178.107 41.9603L180.921 50.1642H184L179.671 37.4591Z" fill="black" data-darkreader-inline-fill="" style="--darkreader-inline-fill:#e8e6e3;"/>
<path d="M174.932 50.1642L175.822 47.5506H179.646L178.757 45.0095H176.688L179.262 37.4591H176.207L171.877 50.1642H174.932Z" fill="black" data-darkreader-inline-fill="" style="--darkreader-inline-fill:#e8e6e3;"/>
<path d="M81.4495 53.3538C81.4495 53.2861 81.5041 53.2311 81.5715 53.2311H165.947C166.015 53.2311 166.069 53.2861 166.069 53.3538C166.069 53.4216 166.015 53.4765 165.947 53.4765H81.5715C81.5041 53.4765 81.4495 53.4216 81.4495 53.3538Z" fill="black" data-darkreader-inline-fill="" style="--darkreader-inline-fill:#000000;"/>
<path d="M116.219 57.1535V59.0296H117.076V57.1535H116.219Z" fill="black" data-darkreader-inline-fill="" style="--darkreader-inline-fill:#e8e6e3;"/>
<path d="M118.362 57.6495H117.183V58.4905H118.362V57.6495Z" fill="black" data-darkreader-inline-fill="" style="--darkreader-inline-fill:#e8e6e3;"/>
<path d="M118.626 59.1374H116.197V59.9784H118.626V59.1374Z" fill="black" data-darkreader-inline-fill="" style="--darkreader-inline-fill:#e8e6e3;"/>
<path d="M118.626 56.2046H116.197V57.0457H118.626V56.2046Z" fill="black" data-darkreader-inline-fill="" style="--darkreader-inline-fill:#e8e6e3;"/>
<path d="M119.905 57.0457C119.986 56.9977 120.086 56.9738 120.205 56.9738V56.1831C119.819 56.1831 119.507 56.2813 119.269 56.4778C119.036 56.6695 118.919 56.9211 118.919 57.2326C118.919 57.5392 119.007 57.7741 119.184 57.937C119.364 58.0999 119.605 58.2293 119.905 58.3252C119.972 58.3491 120.067 58.3779 120.191 58.4114C120.315 58.445 120.408 58.4737 120.469 58.4977C120.536 58.5168 120.605 58.5432 120.677 58.5767C120.753 58.6103 120.808 58.6486 120.841 58.6918C120.874 58.7301 120.891 58.778 120.891 58.8355C120.891 58.9505 120.827 59.044 120.698 59.1159C120.574 59.1829 120.41 59.2165 120.205 59.2165V60C120.672 60 121.046 59.8922 121.327 59.6765C121.613 59.4561 121.755 59.1686 121.755 58.814C121.755 58.5168 121.665 58.282 121.484 58.1095C121.303 57.937 121.065 57.7956 120.77 57.6854C120.693 57.6567 120.598 57.6255 120.484 57.592L120.205 57.4985C120.134 57.4746 120.062 57.4482 119.991 57.4194C119.919 57.3907 119.867 57.3595 119.834 57.326C119.8 57.2877 119.784 57.2469 119.784 57.2038C119.784 57.1415 119.824 57.0888 119.905 57.0457Z" fill="black" data-darkreader-inline-fill="" style="--darkreader-inline-fill:#e8e6e3;"/>
<path d="M120.091 60V59.2093C119.934 59.1949 119.788 59.1542 119.655 59.0871C119.526 59.02 119.438 58.9553 119.391 58.893L118.755 59.4034C118.888 59.5711 119.076 59.7101 119.319 59.8203C119.562 59.9257 119.819 59.9856 120.091 60Z" fill="black" data-darkreader-inline-fill="" style="--darkreader-inline-fill:#e8e6e3;"/>
<path d="M120.305 56.1831V56.9738C120.562 57.0025 120.762 57.108 120.905 57.2901L121.541 56.7725C121.255 56.4083 120.843 56.2118 120.305 56.1831Z" fill="black" data-darkreader-inline-fill="" style="--darkreader-inline-fill:#e8e6e3;"/>
<path d="M121.97 59.9784H122.827V58.5983H121.97V59.9784Z" fill="black" data-darkreader-inline-fill="" style="--darkreader-inline-fill:#e8e6e3;"/>
<path d="M121.948 58.4905H123.792V57.6495H121.948V58.4905Z" fill="black" data-darkreader-inline-fill="" style="--darkreader-inline-fill:#e8e6e3;"/>
<path d="M121.97 57.5416H122.827V56.2046H121.97V57.5416Z" fill="black" data-darkreader-inline-fill="" style="--darkreader-inline-fill:#e8e6e3;"/>
<path d="M124.756 56.2046H123.899V59.9784H124.756V56.2046Z" fill="black" data-darkreader-inline-fill="" style="--darkreader-inline-fill:#e8e6e3;"/>
<path d="M126.492 57.0241V56.1903C126.064 56.2238 125.702 56.4251 125.406 56.7941C125.116 57.1583 124.97 57.592 124.97 58.0951H125.849C125.849 57.822 125.911 57.5848 126.035 57.3835C126.159 57.1822 126.311 57.0624 126.492 57.0241Z" fill="black" data-darkreader-inline-fill="" style="--darkreader-inline-fill:#e8e6e3;"/>
<path d="M127.35 58.0951C127.35 58.3922 127.276 58.6462 127.128 58.8571C126.985 59.0679 126.809 59.1734 126.599 59.1734C126.409 59.1734 126.242 59.0799 126.099 58.893C125.956 58.7013 125.875 58.4689 125.856 58.1958H124.97C124.994 58.6989 125.163 59.1254 125.478 59.4753C125.792 59.8251 126.166 60 126.599 60C127.052 60 127.435 59.8155 127.75 59.4465C128.069 59.0727 128.228 58.6223 128.228 58.0951C128.228 57.568 128.069 57.1175 127.75 56.7438C127.435 56.37 127.052 56.1831 126.599 56.1831V57.0169C126.809 57.0169 126.985 57.1223 127.128 57.3332C127.276 57.544 127.35 57.798 127.35 58.0951Z" fill="black" data-darkreader-inline-fill="" style="--darkreader-inline-fill:#e8e6e3;"/>
<path d="M128.443 57.1535V59.9784H129.3V57.1535H128.443Z" fill="black" data-darkreader-inline-fill="" style="--darkreader-inline-fill:#e8e6e3;"/>
<path d="M130.536 57.5488C130.536 57.6878 130.486 57.8076 130.386 57.9082C130.291 58.0089 130.179 58.0592 130.05 58.0592H129.407V58.9002H130.05C130.422 58.9002 130.738 58.7684 131 58.5049C131.262 58.2413 131.393 57.9226 131.393 57.5488C131.393 57.175 131.262 56.8588 131 56.6C130.738 56.3364 130.422 56.2046 130.05 56.2046H128.421V57.0457H130.05C130.179 57.0457 130.291 57.096 130.386 57.1966C130.486 57.2925 130.536 57.4099 130.536 57.5488Z" fill="black" data-darkreader-inline-fill="" style="--darkreader-inline-fill:#e8e6e3;"/>
<defs>
<filter id="filter0_d_79_210" x="0.512817" y="0" width="246.703" height="79" filterUnits="userSpaceOnUse" color-interpolation-filters="sRGB">
<feFlood flood-opacity="0" result="BackgroundImageFix"/>
<feColorMatrix in="SourceAlpha" type="matrix" values="0 0 0 0 0 0 0 0 0 0 0 0 0 0 0 0 0 0 127 0" result="hardAlpha"/>
<feOffset dy="4"/>
<feGaussianBlur stdDeviation="2"/>
<feComposite in2="hardAlpha" operator="out"/>
<feColorMatrix type="matrix" values="0 0 0 0 0 0 0 0 0 0 0 0 0 0 0 0 0 0 0.25 0"/>
<feBlend mode="normal" in2="BackgroundImageFix" result="effect1_dropShadow_79_210"/>
<feBlend mode="normal" in="SourceGraphic" in2="effect1_dropShadow_79_210" result="shape"/>
</filter>
</defs>
</svg>