<svg xmlns="http://www.w3.org/2000/svg" fill="none" viewBox="4 3 178.6 64">
<g filter="url(#filter0_d_50_179)">
<path d="M126.822 66H5V4H181L126.822 66Z" fill="white" data-darkreader-inline-fill="" style="--darkreader-inline-fill:#181a1b;"/>
<path d="M126.822 66.5H127.049L127.199 66.329L181.376 4.329L182.101 3.5H181H5H4.5V4V66V66.5H5H126.822Z" stroke="black" data-darkreader-inline-stroke="" style="--darkreader-inline-stroke:#e8e6e3;"/>
</g>
<path d="M69.3427 12.5797C69.0672 12.5436 68.814 12.7336 68.7773 13.004C68.7405 13.2744 68.9341 13.5228 69.2097 13.5588C69.4859 13.595 69.5978 13.61 69.7169 13.6355C69.8392 13.6618 69.9718 13.6997 70.2847 13.79C70.5514 13.867 70.8312 13.7173 70.9096 13.4556C70.9881 13.1939 70.8355 12.9193 70.5688 12.8424L70.5473 12.8362C70.2621 12.7539 70.0934 12.7052 69.9321 12.6705C69.7677 12.6353 69.6136 12.6151 69.362 12.5822L69.3427 12.5797Z" fill="black" data-darkreader-inline-fill="" style="--darkreader-inline-fill:#e8e6e3;"/>
<path d="M72.3456 13.582C72.0981 13.4578 71.7949 13.5541 71.6684 13.797C71.542 14.0396 71.6397 14.3368 71.8867 14.4611L71.8873 14.4615L71.8907 14.4632L71.894 14.4649C71.8987 14.4674 71.9056 14.471 71.9145 14.4758L71.921 14.4793L71.9267 14.4824C71.9568 14.4988 72.003 14.5247 72.0629 14.5602C72.1826 14.6313 72.3564 14.7409 72.5641 14.8906C72.9803 15.1905 73.5279 15.6479 74.0505 16.2748C75.0889 17.5206 76.0354 19.4411 75.6449 22.1731C75.6063 22.4433 75.7982 22.693 76.0735 22.7308C76.3488 22.7687 76.6033 22.5804 76.6419 22.3103C77.0783 19.2566 76.0114 17.0671 74.8297 15.6494C74.2422 14.9445 73.6281 14.4318 73.16 14.0945C72.9256 13.9255 72.7266 13.7997 72.5841 13.7151C72.5129 13.6728 72.4556 13.6407 72.4151 13.6186C72.3948 13.6076 72.3786 13.599 72.3669 13.5929L72.3609 13.5898L72.3528 13.5856L72.3483 13.5834L72.3462 13.5822C72.3462 13.5822 72.3456 13.582 72.1166 14.0218L72.3456 13.582Z" fill="black" data-darkreader-inline-fill="" style="--darkreader-inline-fill:#e8e6e3;"/>
<path d="M64.0216 14.6424C64.2518 14.4894 64.3119 14.1823 64.156 13.9564C64.0001 13.7306 63.6871 13.6716 63.457 13.8245C59.9184 16.1766 59.1911 19.7735 59.6111 22.3206C59.6555 22.5899 59.9139 22.7728 60.1883 22.7293C60.4628 22.6857 60.6493 22.4321 60.6049 22.1629C60.2338 19.9121 60.8728 16.7354 64.0216 14.6424Z" fill="black" data-darkreader-inline-fill="" style="--darkreader-inline-fill:#e8e6e3;"/>
<path fill-rule="evenodd" clip-rule="evenodd" d="M71.3256 20.9717C71.3256 22.7058 69.8929 24.1115 68.1257 24.1115C66.3584 24.1115 64.9258 22.7058 64.9258 20.9717C64.9258 19.2376 66.3584 17.8319 68.1257 17.8319C69.8929 17.8319 71.3256 19.2376 71.3256 20.9717ZM70.3189 20.9717C70.3189 22.1602 69.3369 23.1237 68.1257 23.1237C66.9144 23.1237 65.9325 22.1602 65.9325 20.9717C65.9325 19.7832 66.9144 18.8197 68.1257 18.8197C69.3369 18.8197 70.3189 19.7832 70.3189 20.9717Z" fill="black" data-darkreader-inline-fill="" style="--darkreader-inline-fill:#e8e6e3;"/>
<path d="M61.2507 24.1922C61.1372 23.9432 60.8396 23.8315 60.5857 23.9428C60.3319 24.0541 60.2181 24.3462 60.3315 24.5952C61.1385 26.3674 63.2749 28.8017 66.7548 29.327C67.0296 29.3685 67.2866 29.1835 67.3288 28.9139C67.3711 28.6443 67.1826 28.3922 66.9079 28.3507C63.8441 27.8882 61.9537 25.7363 61.2507 24.1922Z" fill="black" data-darkreader-inline-fill="" style="--darkreader-inline-fill:#e8e6e3;"/>
<path d="M76.2284 23.8705C76.3112 23.6101 76.1632 23.3332 75.8978 23.2519C75.6328 23.1708 75.3509 23.3156 75.2677 23.5754L75.2676 23.5757L75.2675 23.576L75.2661 23.5804C75.2644 23.5853 75.2615 23.5937 75.2574 23.6055C75.2491 23.6289 75.2358 23.6656 75.2169 23.7139C75.1791 23.8105 75.1192 23.9534 75.0337 24.1299C74.8625 24.4835 74.5898 24.9691 74.1876 25.4884C73.3848 26.5249 72.0713 27.6898 70.0114 28.22C69.7425 28.2892 69.5817 28.5592 69.6522 28.823C69.7227 29.0869 69.9979 29.2447 70.2668 29.1755C72.5932 28.5767 74.0842 27.2545 74.9892 26.0861C75.4409 25.5029 75.748 24.9566 75.943 24.5539C76.0406 24.3523 76.1106 24.1859 76.1567 24.0678C76.1798 24.0088 76.197 23.9617 76.2088 23.9283C76.2122 23.9187 76.2151 23.9103 76.2176 23.903L76.2191 23.8987L76.2208 23.8936L76.2225 23.8886L76.2243 23.8833L76.2264 23.8768L76.2277 23.8729L76.2281 23.8715L76.2283 23.871C76.2283 23.871 76.2284 23.8705 75.7479 23.7234L76.2284 23.8705Z" fill="black" data-darkreader-inline-fill="" style="--darkreader-inline-fill:#e8e6e3;"/>
<path fill-rule="evenodd" clip-rule="evenodd" d="M79.3793 21.007C79.3793 27.0859 74.357 32.0139 68.1616 32.0139C61.9663 32.0139 56.944 27.0859 56.944 21.007C56.944 14.928 61.9663 10 68.1616 10C74.357 10 79.3793 14.928 79.3793 21.007ZM78.3726 21.007C78.3726 26.5404 73.801 31.0261 68.1616 31.0261C62.5223 31.0261 57.9507 26.5404 57.9507 21.007C57.9507 15.4735 62.5223 10.9878 68.1616 10.9878C73.801 10.9878 78.3726 15.4735 78.3726 21.007Z" fill="black" data-darkreader-inline-fill="" style="--darkreader-inline-fill:#000000;"/>
<path fill-rule="evenodd" clip-rule="evenodd" d="M88.2239 31.0967H84.4128V10.4939H88.2239V11.9756H91.1721V14.0218H93.9765V17.2674H96.781V24.3232H93.9765V27.5688H91.1721V29.5444H88.2239V31.0967ZM93.9765 23.3354V18.2552H95.7742V23.3354H93.9765ZM92.9698 15.0096V26.581H91.1721V15.0096H92.9698ZM90.1654 12.9634H88.3677V28.5566H90.1654V12.9634ZM87.2172 30.1089V11.4817H85.4195V30.1089H87.2172Z" fill="black" data-darkreader-inline-fill="" style="--darkreader-inline-fill:#000000;"/>
<path fill-rule="evenodd" clip-rule="evenodd" d="M39.758 24.3232V17.2674H42.5625V14.0218H45.3669V12.0109H48.1713V10.4939H51.9824V31.0967H48.1713V29.5797H45.3669V27.5688H42.5625V24.3232H39.758ZM48.1713 28.5919H46.3736V12.9987H48.1713V28.5919ZM50.9757 11.4817H49.178V30.1089H50.9757V11.4817ZM45.3669 26.581V15.0096H43.5692V26.581H45.3669ZM42.5625 23.3354V18.2552H40.7648V23.3354H42.5625Z" fill="black" data-darkreader-inline-fill="" style="--darkreader-inline-fill:#000000;"/>
<path d="M79.595 22.6651H83.9094V21.6773H79.7015C79.6805 22.0106 79.6448 22.3401 79.595 22.6651Z" fill="black" data-darkreader-inline-fill="" style="--darkreader-inline-fill:#e8e6e3;"/>
<path d="M79.7287 19.9486H83.8696V18.9608H79.595C79.6538 19.2855 79.6986 19.615 79.7287 19.9486Z" fill="black" data-darkreader-inline-fill="" style="--darkreader-inline-fill:#e8e6e3;"/>
<path d="M56.6235 21.6773H52.4537V22.6651H56.7283C56.6793 22.3401 56.6442 22.0106 56.6235 21.6773Z" fill="black" data-darkreader-inline-fill="" style="--darkreader-inline-fill:#e8e6e3;"/>
<path d="M56.7283 18.9608H52.4138V19.9486H56.5967C56.6264 19.615 56.6705 19.2855 56.7283 18.9608Z" fill="black" data-darkreader-inline-fill="" style="--darkreader-inline-fill:#e8e6e3;"/>
<path d="M15.4488 44.3739H14.0657V46.7738H14.1579L17.2006 51.7106H20.7504L15.4488 44.3739Z" fill="black" data-darkreader-inline-fill="" style="--darkreader-inline-fill:#e8e6e3;"/>
<path d="M11 39.7113V51.7106H13.7661V39.7113H11Z" fill="black" data-darkreader-inline-fill="" style="--darkreader-inline-fill:#e8e6e3;"/>
<path d="M15.6332 44.0311L16.5321 45.2881L20.6121 39.7113H17.1545L14.2962 44.0311H15.6332Z" fill="black" data-darkreader-inline-fill="" style="--darkreader-inline-fill:#e8e6e3;"/>
<path d="M26.2263 42.3169V39.6656C24.8432 39.7723 23.6753 40.4122 22.7226 41.5855C21.7852 42.7435 21.3165 44.1225 21.3165 45.7224H24.1517C24.1517 44.8539 24.3515 44.0996 24.751 43.4597C25.1506 42.8197 25.6423 42.4388 26.2263 42.3169Z" fill="black" data-darkreader-inline-fill="" style="--darkreader-inline-fill:#e8e6e3;"/>
<path d="M28.9923 45.7224C28.9923 46.6671 28.7541 47.4747 28.2778 48.1451C27.8167 48.8155 27.2482 49.1508 26.572 49.1508C25.9573 49.1508 25.4195 48.8536 24.9585 48.2594C24.4975 47.6499 24.2362 46.9109 24.1748 46.0424H21.3165C21.3933 47.6423 21.9389 48.9984 22.9531 50.1107C23.9673 51.223 25.1736 51.7792 26.572 51.7792C28.0319 51.7792 29.2689 51.1925 30.2832 50.0193C31.3127 48.8308 31.8275 47.3985 31.8275 45.7224C31.8275 44.0463 31.3127 42.614 30.2832 41.4255C29.2689 40.237 28.0319 39.6428 26.572 39.6428V42.294C27.2482 42.294 27.8167 42.6293 28.2778 43.2997C28.7541 43.9701 28.9923 44.7777 28.9923 45.7224Z" fill="black" data-darkreader-inline-fill="" style="--darkreader-inline-fill:#e8e6e3;"/>
<path d="M39.401 51.7106V42.5912H36.5889V51.7106H39.401Z" fill="black" data-darkreader-inline-fill="" style="--darkreader-inline-fill:#e8e6e3;"/>
<path d="M33.3618 39.7113V42.2483H42.582V39.7113H33.3618Z" fill="black" data-darkreader-inline-fill="" style="--darkreader-inline-fill:#e8e6e3;"/>
<path d="M49.026 42.3169V39.6656C47.643 39.7723 46.4751 40.4122 45.5223 41.5855C44.5849 42.7435 44.1162 44.1225 44.1162 45.7224H46.9515C46.9515 44.8539 47.1512 44.0996 47.5508 43.4597C47.9503 42.8197 48.4421 42.4388 49.026 42.3169Z" fill="black" data-darkreader-inline-fill="" style="--darkreader-inline-fill:#e8e6e3;"/>
<path d="M51.7921 45.7224C51.7921 46.6671 51.5539 47.4747 51.0775 48.1451C50.6165 48.8155 50.0479 49.1508 49.3718 49.1508C48.7571 49.1508 48.2192 48.8536 47.7582 48.2594C47.2972 47.6499 47.036 46.9109 46.9745 46.0424H44.1162C44.1931 47.6423 44.7386 48.9984 45.7528 50.1107C46.767 51.223 47.9734 51.7792 49.3718 51.7792C50.8316 51.7792 52.0687 51.1925 53.0829 50.0193C54.1125 48.8308 54.6273 47.3985 54.6273 45.7224C54.6273 44.0463 54.1125 42.614 53.0829 41.4255C52.0687 40.237 50.8316 39.6428 49.3718 39.6428V42.294C50.0479 42.294 50.6165 42.6293 51.0775 43.2997C51.5539 43.9701 51.7921 44.7777 51.7921 45.7224Z" fill="black" data-darkreader-inline-fill="" style="--darkreader-inline-fill:#e8e6e3;"/>
<path d="M57.9825 50.4535C58.8431 51.2916 59.8727 51.7106 61.0713 51.7106V49.0365C60.641 49.0365 60.2645 48.8689 59.9418 48.5337C59.6345 48.1984 59.4808 47.8251 59.4808 47.4137V39.7113H56.7147V47.4137C56.7147 48.6022 57.1373 49.6155 57.9825 50.4535Z" fill="black" data-darkreader-inline-fill="" style="--darkreader-inline-fill:#e8e6e3;"/>
<path d="M61.417 48.9908V51.6878C62.5235 51.5963 63.4532 51.1392 64.2062 50.3164C64.9745 49.4936 65.3587 48.526 65.3587 47.4137V39.7113H62.6848V47.4137C62.6848 47.7642 62.5619 48.0918 62.316 48.3965C62.0855 48.7013 61.7858 48.8994 61.417 48.9908Z" fill="black" data-darkreader-inline-fill="" style="--darkreader-inline-fill:#e8e6e3;"/>
<path d="M72.6556 39.0485L76.3206 37.0829L75.583 35.3002L72.5864 36.2601L69.5898 35.3002L68.8522 37.0829L72.5173 39.0485H72.6556Z" fill="black" data-darkreader-inline-fill="" style="--darkreader-inline-fill:#e8e6e3;"/>
<path d="M71.019 48.1451C70.5272 47.4747 70.2813 46.6671 70.2813 45.7224H67.4461C67.4461 47.3985 67.9686 48.8308 69.0136 50.0193C70.0739 51.1925 71.3494 51.7792 72.84 51.7792C74.5918 51.7792 75.9671 51.1468 76.966 49.8821L74.8684 48.1908C74.392 48.8308 73.7159 49.1508 72.84 49.1508C72.1331 49.1508 71.5261 48.8155 71.019 48.1451Z" fill="black" data-darkreader-inline-fill="" style="--darkreader-inline-fill:#e8e6e3;"/>
<path d="M72.84 42.294C73.7159 42.294 74.392 42.6064 74.8684 43.2311L76.966 41.5169C75.9825 40.2675 74.6072 39.6428 72.84 39.6428C71.3955 39.6428 70.1507 40.1989 69.1058 41.3112C68.0762 42.4083 67.523 43.7568 67.4461 45.3567H70.3044C70.3812 44.4882 70.6578 43.7644 71.1342 43.1854C71.6106 42.5912 72.1792 42.294 72.84 42.294Z" fill="black" data-darkreader-inline-fill="" style="--darkreader-inline-fill:#e8e6e3;"/>
<path d="M83.2487 42.3169V39.6656C81.8656 39.7723 80.6977 40.4122 79.745 41.5855C78.8076 42.7435 78.3389 44.1225 78.3389 45.7224H81.1741C81.1741 44.8539 81.3739 44.0996 81.7734 43.4597C82.173 42.8197 82.6647 42.4388 83.2487 42.3169Z" fill="black" data-darkreader-inline-fill="" style="--darkreader-inline-fill:#e8e6e3;"/>
<path d="M86.0147 45.7224C86.0147 46.6671 85.7765 47.4747 85.3002 48.1451C84.8391 48.8155 84.2706 49.1508 83.5944 49.1508C82.9797 49.1508 82.4419 48.8536 81.9809 48.2594C81.5199 47.6499 81.2586 46.9109 81.1972 46.0424H78.3389C78.4157 47.6423 78.9613 48.9984 79.9755 50.1107C80.9897 51.223 82.196 51.7792 83.5944 51.7792C85.0543 51.7792 86.2913 51.1925 87.3055 50.0193C88.3351 48.8308 88.8499 47.3985 88.8499 45.7224C88.8499 44.0463 88.3351 42.614 87.3055 41.4255C86.2913 40.237 85.0543 39.6428 83.5944 39.6428V42.294C84.2706 42.294 84.8391 42.6293 85.3002 43.2997C85.7765 43.9701 86.0147 44.7777 86.0147 45.7224Z" fill="black" data-darkreader-inline-fill="" style="--darkreader-inline-fill:#e8e6e3;"/>
<path d="M92.7353 39.7113H89.8079L94.1414 51.7106H97.0458L92.7353 39.7113Z" fill="black" data-darkreader-inline-fill="" style="--darkreader-inline-fill:#e8e6e3;"/>
<path d="M101.425 39.7113H98.5441L95.8241 47.2994L97.2302 51.2078L101.425 39.7113Z" fill="black" data-darkreader-inline-fill="" style="--darkreader-inline-fill:#e8e6e3;"/>
<path d="M109.69 39.7113V51.7106H112.318V39.7113H109.69Z" fill="black" data-darkreader-inline-fill="" style="--darkreader-inline-fill:#e8e6e3;"/>
<path d="M104.827 42.6597H103.467V51.7106H106.094V45.5396L104.827 42.6597Z" fill="black" data-darkreader-inline-fill="" style="--darkreader-inline-fill:#e8e6e3;"/>
<path d="M109.345 51.7106V45.8595L106.625 39.7113H103.398V42.3169H105.057L109.16 51.7106H109.345Z" fill="black" data-darkreader-inline-fill="" style="--darkreader-inline-fill:#e8e6e3;"/>
<path d="M121.851 39.7113H121.828L120.353 43.9625L123.05 51.7106H126L121.851 39.7113Z" fill="black" data-darkreader-inline-fill="" style="--darkreader-inline-fill:#e8e6e3;"/>
<path d="M117.31 51.7106L118.163 49.2422H121.828L120.975 46.8423H118.993L121.459 39.7113H118.532L114.383 51.7106H117.31Z" fill="black" data-darkreader-inline-fill="" style="--darkreader-inline-fill:#e8e6e3;"/>
<path d="M27.7225 54.723C27.7225 54.6591 27.7748 54.6072 27.8393 54.6072H108.7C108.764 54.6072 108.817 54.6591 108.817 54.723C108.817 54.787 108.764 54.8389 108.7 54.8389H27.8393C27.7748 54.8389 27.7225 54.787 27.7225 54.723Z" fill="black" data-darkreader-inline-fill="" style="--darkreader-inline-fill:#000000;"/>
<path d="M61.0428 58.3116V60.0835H61.8644V58.3116H61.0428Z" fill="black" data-darkreader-inline-fill="" style="--darkreader-inline-fill:#e8e6e3;"/>
<path d="M63.0968 58.78H61.9671V59.5743H63.0968V58.78Z" fill="black" data-darkreader-inline-fill="" style="--darkreader-inline-fill:#e8e6e3;"/>
<path d="M63.3502 60.1853H61.0223V60.9796H63.3502V60.1853Z" fill="black" data-darkreader-inline-fill="" style="--darkreader-inline-fill:#e8e6e3;"/>
<path d="M63.3502 57.4155H61.0223V58.2098H63.3502V57.4155Z" fill="black" data-darkreader-inline-fill="" style="--darkreader-inline-fill:#e8e6e3;"/>
<path d="M64.5757 58.2098C64.6533 58.1645 64.7492 58.1419 64.8633 58.1419V57.3951C64.4935 57.3951 64.1946 57.4879 63.9664 57.6735C63.7427 57.8545 63.6309 58.0921 63.6309 58.3863C63.6309 58.676 63.7153 58.8977 63.8842 59.0516C64.0576 59.2055 64.2881 59.3277 64.5757 59.4182C64.6396 59.4408 64.7309 59.468 64.8496 59.4997C64.9683 59.5313 65.0573 59.5585 65.1166 59.5811C65.1805 59.5992 65.2467 59.6241 65.3152 59.6558C65.3882 59.6875 65.4407 59.7237 65.4726 59.7644C65.5046 59.8006 65.5206 59.8459 65.5206 59.9002C65.5206 60.0088 65.4589 60.0971 65.3357 60.165C65.217 60.2283 65.0595 60.26 64.8633 60.26V61C65.3106 61 65.6689 60.8982 65.9382 60.6945C66.2121 60.4863 66.349 60.2148 66.349 59.8798C66.349 59.5992 66.2623 59.3775 66.0888 59.2145C65.9154 59.0516 65.6872 58.9181 65.4042 58.814C65.3311 58.7868 65.2398 58.7574 65.1303 58.7257L64.8633 58.6375C64.7948 58.6149 64.7263 58.59 64.6579 58.5628C64.5894 58.5357 64.5392 58.5062 64.5072 58.4746C64.4753 58.4383 64.4593 58.3999 64.4593 58.3591C64.4593 58.3003 64.4981 58.2505 64.5757 58.2098Z" fill="black" data-darkreader-inline-fill="" style="--darkreader-inline-fill:#e8e6e3;"/>
<path d="M64.7537 61V60.2532C64.6031 60.2397 64.4639 60.2012 64.3361 60.1378C64.2128 60.0745 64.1284 60.0134 64.0827 59.9545L63.4734 60.4365C63.6012 60.5949 63.7815 60.7262 64.0143 60.8303C64.2471 60.9298 64.4935 60.9864 64.7537 61Z" fill="black" data-darkreader-inline-fill="" style="--darkreader-inline-fill:#e8e6e3;"/>
<path d="M64.9591 57.3951V58.1419C65.2056 58.1691 65.3973 58.2686 65.5342 58.4406L66.1436 57.9518C65.8697 57.6078 65.4749 57.4223 64.9591 57.3951Z" fill="black" data-darkreader-inline-fill="" style="--darkreader-inline-fill:#e8e6e3;"/>
<path d="M66.5544 60.9796H67.376V59.6762H66.5544V60.9796Z" fill="black" data-darkreader-inline-fill="" style="--darkreader-inline-fill:#e8e6e3;"/>
<path d="M66.5339 59.5743H68.3003V58.78H66.5339V59.5743Z" fill="black" data-darkreader-inline-fill="" style="--darkreader-inline-fill:#e8e6e3;"/>
<path d="M66.5544 58.6782H67.376V57.4155H66.5544V58.6782Z" fill="black" data-darkreader-inline-fill="" style="--darkreader-inline-fill:#e8e6e3;"/>
<path d="M69.2246 57.4155H68.403V60.9796H69.2246V57.4155Z" fill="black" data-darkreader-inline-fill="" style="--darkreader-inline-fill:#e8e6e3;"/>
<path d="M70.8884 58.1894V57.4019C70.4776 57.4336 70.1307 57.6237 69.8477 57.9722C69.5692 58.3161 69.43 58.7257 69.43 59.201H70.2722C70.2722 58.943 70.3315 58.719 70.4502 58.5289C70.5688 58.3388 70.7149 58.2256 70.8884 58.1894Z" fill="black" data-darkreader-inline-fill="" style="--darkreader-inline-fill:#e8e6e3;"/>
<path d="M71.71 59.201C71.71 59.4816 71.6392 59.7214 71.4977 59.9206C71.3608 60.1197 71.1919 60.2193 70.9911 60.2193C70.8085 60.2193 70.6487 60.131 70.5118 59.9545C70.3749 59.7735 70.2973 59.554 70.279 59.296H69.43C69.4528 59.7712 69.6149 60.174 69.9161 60.5044C70.2174 60.8348 70.5757 61 70.9911 61C71.4247 61 71.7921 60.8258 72.0934 60.4773C72.3992 60.1242 72.5521 59.6988 72.5521 59.201C72.5521 58.7031 72.3992 58.2777 72.0934 57.9247C71.7921 57.5716 71.4247 57.3951 70.9911 57.3951V58.1826C71.1919 58.1826 71.3608 58.2822 71.4977 58.4813C71.6392 58.6805 71.71 58.9204 71.71 59.201Z" fill="black" data-darkreader-inline-fill="" style="--darkreader-inline-fill:#e8e6e3;"/>
<path d="M72.7575 58.3116V60.9796H73.5791V58.3116H72.7575Z" fill="black" data-darkreader-inline-fill="" style="--darkreader-inline-fill:#e8e6e3;"/>
<path d="M74.7636 58.685C74.7636 58.8163 74.7157 58.9294 74.6198 59.0244C74.5285 59.1195 74.4212 59.167 74.298 59.167H73.6818V59.9613H74.298C74.654 59.9613 74.9576 59.8368 75.2086 59.5879C75.4597 59.339 75.5852 59.038 75.5852 58.685C75.5852 58.332 75.4597 58.0333 75.2086 57.7889C74.9576 57.54 74.654 57.4155 74.298 57.4155H72.737V58.2098H74.298C74.4212 58.2098 74.5285 58.2573 74.6198 58.3524C74.7157 58.4429 74.7636 58.5538 74.7636 58.685Z" fill="black" data-darkreader-inline-fill="" style="--darkreader-inline-fill:#e8e6e3;"/>
<defs>
<filter id="filter0_d_50_179" x="0" y="0" width="187.202" height="72" filterUnits="userSpaceOnUse" color-interpolation-filters="sRGB">
<feFlood flood-opacity="0" result="BackgroundImageFix"/>
<feColorMatrix in="SourceAlpha" type="matrix" values="0 0 0 0 0 0 0 0 0 0 0 0 0 0 0 0 0 0 127 0" result="hardAlpha"/>
<feOffset dy="1"/>
<feGaussianBlur stdDeviation="2"/>
<feComposite in2="hardAlpha" operator="out"/>
<feColorMatrix type="matrix" values="0 0 0 0 0 0 0 0 0 0 0 0 0 0 0 0 0 0 0.25 0"/>
<feBlend mode="normal" in2="BackgroundImageFix" result="effect1_dropShadow_50_179"/>
<feBlend mode="normal" in="SourceGraphic" in2="effect1_dropShadow_50_179" result="shape"/>
</filter>
</defs>
</svg>