<svg width="358" height="125" viewBox="0 0 358 125" fill="none" xmlns="http://www.w3.org/2000/svg">
<g clip-path="url(#clip0_1_28)">
<g filter="url(#filter0_d_1_28)">
<path d="M247.489 124H-1V-1H358L247.489 124Z" fill="white"/>
<path d="M247.489 124H-1V-1H358L247.489 124Z" stroke="black"/>
</g>
<path fill-rule="evenodd" clip-rule="evenodd" d="M132.553 33.7282C132.553 37.1624 129.737 39.9463 126.264 39.9463C122.791 39.9463 119.976 37.1624 119.976 33.7282C119.976 30.2941 122.791 27.5102 126.264 27.5102C129.737 27.5102 132.553 30.2941 132.553 33.7282ZM130.574 33.7282C130.574 36.082 128.645 37.9901 126.264 37.9901C123.884 37.9901 121.954 36.082 121.954 33.7282C121.954 31.3745 123.884 29.4664 126.264 29.4664C128.645 29.4664 130.574 31.3745 130.574 33.7282Z" fill="black"/>
<path d="M118.199 21.1937C118.651 20.8907 118.77 20.2826 118.463 19.8353C118.157 19.3881 117.542 19.2711 117.089 19.5741C110.135 24.2322 108.706 31.3553 109.531 36.3996C109.619 36.9329 110.126 37.2952 110.666 37.209C111.205 37.1227 111.572 36.6205 111.484 36.0872C110.755 31.6298 112.011 25.3387 118.199 21.1937Z" fill="black"/>
<path d="M111.447 39.6122C111.946 39.3918 112.531 39.613 112.753 40.1062C114.135 43.164 117.85 47.4256 123.871 48.3416C124.411 48.4237 124.782 48.9231 124.698 49.457C124.615 49.991 124.11 50.3572 123.57 50.275C116.732 49.2347 112.533 44.4139 110.947 40.9042C110.724 40.411 110.948 39.8326 111.447 39.6122Z" fill="black"/>
<path d="M142.188 39.469C142.351 38.9533 142.06 38.4049 141.538 38.244C141.017 38.0834 140.463 38.3701 140.3 38.8846L140.3 38.8851L140.3 38.8857L140.297 38.8945C140.294 38.9042 140.288 38.9209 140.28 38.9441C140.264 38.9906 140.237 39.0632 140.2 39.1589C140.126 39.3502 140.008 39.6331 139.84 39.9828C139.504 40.683 138.968 41.6448 138.177 42.6731C136.6 44.7258 134.018 47.0328 129.97 48.0827C129.442 48.2198 129.126 48.7545 129.264 49.277C129.403 49.7995 129.944 50.112 130.472 49.975C135.044 48.7892 137.974 46.1706 139.753 43.8568C140.64 42.7018 141.244 41.6199 141.627 40.8224C141.819 40.4232 141.956 40.0937 142.047 39.8599C142.093 39.7429 142.126 39.6497 142.15 39.5835C142.156 39.5646 142.162 39.5478 142.167 39.5333L142.17 39.5249L142.173 39.5148L142.176 39.5049L142.18 39.4944L142.184 39.4815L142.187 39.4739L142.187 39.4711L142.188 39.47C142.188 39.47 142.188 39.469 141.244 39.1778L142.188 39.469Z" fill="black"/>
<path d="M133.227 19.5195C133.475 19.0385 134.071 18.8479 134.558 19.0937L134.107 19.9647C134.558 19.0937 134.559 19.0942 134.559 19.0942L134.563 19.0964L134.572 19.1009C134.576 19.1032 134.581 19.106 134.588 19.1092L134.599 19.1154C134.622 19.1275 134.654 19.1444 134.694 19.1663C134.774 19.2101 134.886 19.2736 135.026 19.3574C135.306 19.525 135.697 19.7741 136.158 20.1086C137.078 20.7766 138.285 21.7921 139.439 23.1881C141.762 25.9957 143.858 30.3318 143.001 36.3793C142.925 36.9142 142.425 37.2871 141.884 37.2121C141.343 37.137 140.965 36.6425 141.041 36.1076C141.809 30.6971 139.949 26.8938 137.908 24.4266C136.881 23.185 135.805 22.2792 134.987 21.6853C134.579 21.3889 134.237 21.1719 134.002 21.031C133.884 20.9606 133.793 20.9094 133.734 20.877L133.723 20.8708L133.71 20.8639C133.693 20.8544 133.679 20.8472 133.67 20.8423L133.663 20.8389L133.657 20.8355L133.656 20.8348C133.17 20.5885 132.978 20 133.227 19.5195Z" fill="black"/>
<path d="M128.656 17.1088C128.115 17.0374 127.617 17.4136 127.545 17.949C127.473 18.4845 127.853 18.9765 128.395 19.0479C128.938 19.1194 129.157 19.1491 129.392 19.1998C129.632 19.2517 129.892 19.3269 130.507 19.5058C131.031 19.6582 131.581 19.3616 131.735 18.8434C131.89 18.3251 131.59 17.7814 131.066 17.629L131.023 17.6167C130.463 17.4537 130.131 17.3573 129.814 17.2887C129.491 17.2189 129.188 17.1789 128.694 17.1138L128.656 17.1088Z" fill="black"/>
<path fill-rule="evenodd" clip-rule="evenodd" d="M126.335 55.5962C138.51 55.5962 148.38 45.8369 148.38 33.7981C148.38 21.7593 138.51 12 126.335 12C114.16 12 104.29 21.7593 104.29 33.7981C104.29 45.8369 114.16 55.5962 126.335 55.5962ZM126.335 53.64C137.418 53.64 146.402 44.7565 146.402 33.7981C146.402 22.8397 137.418 13.9562 126.335 13.9562C115.253 13.9562 106.268 22.8397 106.268 33.7981C106.268 44.7565 115.253 53.64 126.335 53.64Z" fill="black"/>
<path fill-rule="evenodd" clip-rule="evenodd" d="M165.762 53.7797H158.272V12.9781H165.762V15.9125H171.556V19.9647H177.067V26.3923H182.578V40.3655H177.067V46.7931H171.556V50.7056H165.762V53.7797ZM177.067 38.4092V28.3486H180.6V38.4092H177.067ZM175.089 21.9209V44.8369H171.556V21.9209H175.089ZM169.577 17.8687H166.044V48.7494H169.577V17.8687ZM163.783 51.8235V14.9344H160.251V51.8235H163.783Z" fill="black"/>
<path fill-rule="evenodd" clip-rule="evenodd" d="M70.5158 26.3923V40.3655H76.0271V46.7931H81.5383V50.7755H87.0496V53.7797H94.5393V12.9781H87.0496V15.9823H81.5383V19.9647H76.0271V26.3923H70.5158ZM83.5168 48.8192H87.0496V17.9386H83.5168V48.8192ZM89.028 14.9344H92.5609V51.8235H89.028V14.9344ZM81.5383 21.9209V44.8369H78.0055V21.9209H81.5383ZM76.0271 28.3486V38.4092H72.4942V28.3486H76.0271Z" fill="black"/>
<path d="M148.804 37.0818H157.283V35.1256H149.013C148.972 35.7858 148.902 36.4383 148.804 37.0818Z" fill="black"/>
<path d="M157.205 31.7021H149.067C149.008 31.0414 148.92 30.3889 148.804 29.7459H157.205V31.7021Z" fill="black"/>
<path d="M103.66 35.1256H95.4656V37.0818H103.866C103.77 36.4383 103.701 35.7858 103.66 35.1256Z" fill="black"/>
<path d="M95.3872 29.7459H103.866C103.752 30.3889 103.666 31.0414 103.607 31.7021H95.3872V29.7459Z" fill="black"/>
<path d="M20.0248 80.0738H22.7428L33.1616 94.6034H26.1855L20.206 84.8265H20.0248V80.0738ZM14 94.6034V70.8401H19.4359V94.6034H14ZM24.8718 81.8844L23.1052 79.3949H20.4778L26.0949 70.8401H32.8898L24.8718 81.8844Z" fill="black"/>
<path d="M43.9229 70.7496V76.0001C42.7753 76.2415 41.8089 76.9959 41.0238 78.2633C40.2386 79.5307 39.846 81.0244 39.846 82.7444H34.2742C34.2742 79.5759 35.1952 76.845 37.0374 74.5517C38.9098 72.2282 41.2049 70.9608 43.9229 70.7496ZM47.9545 87.5423C48.8907 86.2146 49.3588 84.6152 49.3588 82.7444C49.3588 80.8735 48.8907 79.2742 47.9545 77.9464C47.0486 76.6187 45.9312 75.9549 44.6024 75.9549V70.7043C47.4714 70.7043 49.9024 71.8812 51.8956 74.2349C53.919 76.5886 54.9306 79.4251 54.9306 82.7444C54.9306 86.0637 53.919 88.9002 51.8956 91.2539C49.9024 93.5774 47.4714 94.7392 44.6024 94.7392C41.8542 94.7392 39.4836 93.6377 37.4904 91.4349C35.4972 89.2321 34.4252 86.5465 34.2742 83.3781H39.8913C40.0121 85.0981 40.5255 86.5616 41.4314 87.7686C42.3374 88.9454 43.3944 89.5339 44.6024 89.5339C45.9312 89.5339 47.0486 88.87 47.9545 87.5423Z" fill="black"/>
<path d="M69.8142 76.5433V94.6034H64.2877V76.5433H69.8142ZM57.9458 75.8643V70.8401H76.0655V75.8643H57.9458Z" fill="black"/>
<path d="M88.7294 70.7496V76.0001C87.5818 76.2415 86.6154 76.9959 85.8302 78.2633C85.045 79.5307 84.6524 81.0244 84.6524 82.7444H79.0806C79.0806 79.5759 80.0017 76.845 81.8439 74.5517C83.7162 72.2282 86.0114 70.9608 88.7294 70.7496ZM92.761 87.5423C93.6972 86.2146 94.1653 84.6152 94.1653 82.7444C94.1653 80.8735 93.6972 79.2742 92.761 77.9464C91.855 76.6187 90.7376 75.9549 89.4088 75.9549V70.7043C92.2778 70.7043 94.7089 71.8812 96.702 74.2349C98.7254 76.5886 99.7371 79.4251 99.7371 82.7444C99.7371 86.0637 98.7254 88.9002 96.702 91.2539C94.7089 93.5774 92.2778 94.7392 89.4088 94.7392C86.6607 94.7392 84.29 93.6377 82.2969 91.4349C80.3037 89.2321 79.2316 86.5465 79.0806 83.3781H84.6977C84.8185 85.0981 85.3319 86.5616 86.2379 87.7686C87.1439 88.9454 88.2009 89.5339 89.4088 89.5339C90.7376 89.5339 91.855 88.87 92.761 87.5423Z" fill="black"/>
<path d="M112.401 94.6034C110.045 94.6034 108.022 93.7735 106.331 92.1139C104.67 90.4542 103.839 88.4475 103.839 86.0939V70.8401H109.275V86.0939C109.275 86.9086 109.577 87.6479 110.181 88.3118C110.815 88.9756 111.555 89.3075 112.401 89.3075V94.6034ZM113.08 94.5581V89.217C113.805 89.036 114.394 88.6437 114.847 88.0402C115.33 87.4367 115.572 86.7879 115.572 86.0939V70.8401H120.827V86.0939C120.827 88.2967 120.072 90.2128 118.562 91.8423C117.082 93.4718 115.255 94.377 113.08 94.5581Z" fill="black"/>
<path d="M142.369 65.6348L135.167 69.5275H134.895L127.692 65.6348L129.142 62.1043L135.031 64.0053L140.92 62.1043L142.369 65.6348ZM130.501 82.7444C130.501 84.6152 130.984 86.2146 131.95 87.5423C132.947 88.87 134.14 89.5339 135.529 89.5339C137.25 89.5339 138.579 88.9002 139.515 87.6328L143.638 90.9823C141.675 93.4869 138.972 94.7392 135.529 94.7392C132.6 94.7392 130.093 93.5774 128.009 91.2539C125.956 88.9002 124.929 86.0637 124.929 82.7444H130.501ZM139.515 77.8107C138.579 76.5735 137.25 75.9549 135.529 75.9549C134.23 75.9549 133.113 76.5433 132.177 77.7201C131.241 78.8668 130.697 80.3001 130.546 82.0202H124.929C125.08 78.8517 126.167 76.1812 128.19 74.0085C130.244 71.8057 132.69 70.7043 135.529 70.7043C139.002 70.7043 141.705 71.9415 143.638 74.4159L139.515 77.8107Z" fill="black"/>
<path d="M155.984 70.7496V76.0001C154.837 76.2415 153.87 76.9959 153.085 78.2633C152.3 79.5307 151.907 81.0244 151.907 82.7444H146.336C146.336 79.5759 147.257 76.845 149.099 74.5517C150.971 72.2282 153.266 70.9608 155.984 70.7496ZM160.016 87.5423C160.952 86.2146 161.42 84.6152 161.42 82.7444C161.42 80.8735 160.952 79.2742 160.016 77.9464C159.11 76.6187 157.993 75.9549 156.664 75.9549V70.7043C159.533 70.7043 161.964 71.8812 163.957 74.2349C165.98 76.5886 166.992 79.4251 166.992 82.7444C166.992 86.0637 165.98 88.9002 163.957 91.2539C161.964 93.5774 159.533 94.7392 156.664 94.7392C153.916 94.7392 151.545 93.6377 149.552 91.4349C147.559 89.2321 146.487 86.5465 146.336 83.3781H151.953C152.073 85.0981 152.587 86.5616 153.493 87.7686C154.399 88.9454 155.456 89.5339 156.664 89.5339C157.993 89.5339 159.11 88.87 160.016 87.5423Z" fill="black"/>
<path d="M168.875 70.8401H174.628L183.099 94.6034H177.391L168.875 70.8401ZM186.043 70.8401H191.706L183.461 93.6076L180.698 85.8675L186.043 70.8401Z" fill="black"/>
<path d="M207.948 94.6034V70.8401H213.112V94.6034H207.948ZM195.717 76.6791H198.39L200.881 82.3823V94.6034H195.717V76.6791ZM207.269 83.0159V94.6034H206.906L198.843 76.0001H195.581V70.8401H201.923L207.269 83.0159Z" fill="black"/>
<path d="M231.801 70.8401H231.846L240 94.6034H234.202L228.902 79.2591L231.801 70.8401ZM224.598 89.7149L222.922 94.6034H217.169L225.323 70.8401H231.076L226.229 84.9623H230.125L231.801 89.7149H224.598Z" fill="black"/>
<path d="M86.9886 112.96V107.676H88.6032V112.96H86.9886ZM88.8051 108.846H91.3347V110.419H88.8051V108.846ZM86.9482 105.901H91.523V107.474H86.9482V105.901Z" fill="black"/>
<path d="M91.9267 112.96V105.901H93.5413V112.96H91.9267Z" fill="black"/>
<path d="M97.4299 107.595V112.96H95.7883V107.595H97.4299ZM93.9046 107.394V105.901H99.2867V107.394H93.9046Z" fill="black"/>
<path d="M101.493 105.901L104.588 112.96H102.973L101.386 109.289V105.901H101.493ZM99.65 112.96V105.901H101.184V112.96H99.65ZM103.283 109.464V105.901H104.817V112.96L103.283 109.464Z" fill="black"/>
<path d="M105.382 111.185V107.676H106.997V111.185H105.382ZM107.198 108.604H109.418V110.177H107.198V108.604ZM105.342 111.387H109.916V112.96H105.342V111.387ZM105.342 105.901H109.916V107.474H105.342V105.901Z" fill="black"/>
<path d="M112.89 107.34C112.666 107.34 112.477 107.385 112.325 107.474C112.172 107.555 112.096 107.654 112.096 107.77C112.096 107.851 112.127 107.927 112.19 107.999C112.253 108.061 112.352 108.12 112.486 108.173C112.621 108.227 112.755 108.276 112.89 108.321C113.025 108.366 113.199 108.424 113.415 108.496C113.63 108.559 113.809 108.617 113.953 108.671C114.509 108.877 114.958 109.141 115.298 109.464C115.639 109.787 115.81 110.226 115.81 110.782C115.81 111.445 115.541 111.983 115.002 112.395C114.473 112.798 113.769 113 112.89 113V111.535C113.276 111.535 113.585 111.472 113.818 111.346C114.061 111.212 114.182 111.037 114.182 110.822C114.182 110.714 114.15 110.625 114.087 110.553C114.025 110.472 113.922 110.401 113.778 110.338C113.643 110.275 113.513 110.226 113.388 110.19C113.271 110.145 113.096 110.091 112.863 110.029C112.63 109.966 112.45 109.912 112.325 109.867C111.76 109.688 111.307 109.446 110.966 109.141C110.634 108.837 110.468 108.397 110.468 107.824C110.468 107.241 110.688 106.771 111.127 106.412C111.576 106.045 112.163 105.861 112.89 105.861V107.34ZM112.675 111.521V113C112.163 112.973 111.679 112.861 111.221 112.664C110.764 112.458 110.41 112.198 110.159 111.884L111.356 110.93C111.446 111.046 111.612 111.167 111.854 111.293C112.105 111.418 112.379 111.494 112.675 111.521ZM113.078 107.34V105.861C114.092 105.915 114.868 106.282 115.406 106.963L114.209 107.931C113.939 107.591 113.563 107.394 113.078 107.34Z" fill="black"/>
<path d="M118.783 107.34C118.559 107.34 118.371 107.385 118.218 107.474C118.066 107.555 117.989 107.654 117.989 107.77C117.989 107.851 118.021 107.927 118.084 107.999C118.146 108.061 118.245 108.12 118.38 108.173C118.514 108.227 118.649 108.276 118.783 108.321C118.918 108.366 119.093 108.424 119.308 108.496C119.523 108.559 119.703 108.617 119.846 108.671C120.402 108.877 120.851 109.141 121.192 109.464C121.533 109.787 121.703 110.226 121.703 110.782C121.703 111.445 121.434 111.983 120.896 112.395C120.367 112.798 119.662 113 118.783 113V111.535C119.169 111.535 119.479 111.472 119.712 111.346C119.954 111.212 120.075 111.037 120.075 110.822C120.075 110.714 120.044 110.625 119.981 110.553C119.918 110.472 119.815 110.401 119.671 110.338C119.537 110.275 119.407 110.226 119.281 110.19C119.165 110.145 118.99 110.091 118.756 110.029C118.523 109.966 118.344 109.912 118.218 109.867C117.653 109.688 117.2 109.446 116.859 109.141C116.527 108.837 116.361 108.397 116.361 107.824C116.361 107.241 116.581 106.771 117.021 106.412C117.469 106.045 118.057 105.861 118.783 105.861V107.34ZM118.568 111.521V113C118.057 112.973 117.572 112.861 117.115 112.664C116.657 112.458 116.303 112.198 116.052 111.884L117.249 110.93C117.339 111.046 117.505 111.167 117.747 111.293C117.998 111.418 118.272 111.494 118.568 111.521ZM118.972 107.34V105.861C119.985 105.915 120.761 106.282 121.299 106.963L120.102 107.931C119.833 107.591 119.456 107.394 118.972 107.34Z" fill="black"/>
<path d="M126.547 109.437C126.547 109.993 126.691 110.468 126.978 110.862C127.274 111.257 127.628 111.454 128.041 111.454C128.552 111.454 128.947 111.266 129.225 110.889L130.449 111.884C129.866 112.628 129.063 113 128.041 113C127.17 113 126.426 112.655 125.807 111.965C125.197 111.266 124.892 110.423 124.892 109.437H126.547ZM129.225 107.972C128.947 107.604 128.552 107.421 128.041 107.421C127.655 107.421 127.323 107.595 127.045 107.945C126.767 108.285 126.605 108.711 126.56 109.222H124.892C124.937 108.281 125.26 107.488 125.861 106.842C126.471 106.188 127.197 105.861 128.041 105.861C129.072 105.861 129.875 106.228 130.449 106.963L129.225 107.972Z" fill="black"/>
<path d="M130.88 111.185V107.676H132.494V111.185H130.88ZM132.696 108.604H134.916V110.177H132.696V108.604ZM130.839 111.387H135.414V112.96H130.839V111.387ZM130.839 105.901H135.414V107.474H130.839V105.901Z" fill="black"/>
<path d="M137.661 105.901L140.756 112.96H139.141L137.553 109.289V105.901H137.661ZM135.818 112.96V105.901H137.352V112.96H135.818ZM139.451 109.464V105.901H140.984V112.96L139.451 109.464Z" fill="black"/>
<path d="M144.873 107.595V112.96H143.232V107.595H144.873ZM141.348 107.394V105.901H146.73V107.394H141.348Z" fill="black"/>
<path d="M149.313 108.725C150.022 108.725 150.668 108.944 151.251 109.383C151.843 109.823 152.139 110.307 152.139 110.835V112.96H150.524V111.064C150.524 110.786 150.426 110.549 150.228 110.351C150.031 110.154 149.793 110.056 149.515 110.056H148.91V108.725H149.313ZM147.093 112.96V107.636H148.708V112.96H147.093ZM151.345 109.195C150.959 108.926 150.547 108.738 150.107 108.631C150.385 108.478 150.524 108.254 150.524 107.958C150.524 107.815 150.479 107.694 150.39 107.595C150.3 107.488 150.197 107.434 150.08 107.434H147.053V105.901H150.121C150.677 105.901 151.152 106.103 151.547 106.506C151.942 106.901 152.139 107.371 152.139 107.918C152.139 108.456 151.874 108.881 151.345 109.195Z" fill="black"/>
<path d="M155.045 112.96C154.346 112.96 153.745 112.713 153.242 112.22C152.749 111.727 152.502 111.131 152.502 110.432V105.901H154.117V110.432C154.117 110.674 154.206 110.894 154.386 111.091C154.574 111.288 154.794 111.387 155.045 111.387V112.96ZM155.247 112.946V111.36C155.462 111.306 155.637 111.189 155.772 111.01C155.915 110.831 155.987 110.638 155.987 110.432V105.901H157.548V110.432C157.548 111.086 157.324 111.656 156.875 112.14C156.436 112.624 155.893 112.892 155.247 112.946Z" fill="black"/>
<path d="M160.696 105.901L162.89 112.96H161.262L159.095 105.901H160.696ZM158.032 112.96V105.901H158.893L159.607 108.241V112.96H158.032ZM163.455 105.901H165.042L162.997 112.61L162.19 110.042L163.455 105.901ZM164.531 108.268L165.244 105.901H166.105V112.96H164.531V108.268Z" fill="black"/>
</g>
<defs>
<filter id="filter0_d_1_28" x="-5.5" y="-4.5" width="368.609" height="134" filterUnits="userSpaceOnUse" color-interpolation-filters="sRGB">
<feFlood flood-opacity="0" result="BackgroundImageFix"/>
<feColorMatrix in="SourceAlpha" type="matrix" values="0 0 0 0 0 0 0 0 0 0 0 0 0 0 0 0 0 0 127 0" result="hardAlpha"/>
<feOffset dy="1"/>
<feGaussianBlur stdDeviation="2"/>
<feComposite in2="hardAlpha" operator="out"/>
<feColorMatrix type="matrix" values="0 0 0 0 0 0 0 0 0 0 0 0 0 0 0 0 0 0 0.25 0"/>
<feBlend mode="normal" in2="BackgroundImageFix" result="effect1_dropShadow_1_28"/>
<feBlend mode="normal" in="SourceGraphic" in2="effect1_dropShadow_1_28" result="shape"/>
</filter>
<clipPath id="clip0_1_28">
<rect width="358" height="125" fill="white"/>
</clipPath>
</defs>
</svg>
